<svg width="500" height="500" viewBox="0 0 500 500" fill="none" xmlns="http://www.w3.org/2000/svg">
<path d="M459.066 415.442H51.2999C51.2999 415.442 35.0879 420.733 26.1452 378.632C17.2026 336.53 63.2272 325.247 74.1709 288.889C85.1146 252.531 37.3716 260.184 41.385 210.429C45.3985 160.674 111.004 159.713 142.829 166.417C174.654 173.121 170.674 150.148 207.474 111.868C244.273 73.5875 299.941 77.4313 327.775 107.086C355.609 136.74 346.678 167.366 381.488 167.366C416.297 167.366 448.122 174.071 469.003 238.173C489.885 302.275 451.717 331.578 452.407 360.475C452.99 378.959 455.219 397.354 459.066 415.442Z" fill="#92E3A9"/>
<path opacity="0.6" d="M459.066 415.442H51.2999C51.2999 415.442 35.0879 420.733 26.1452 378.632C17.2026 336.53 63.2272 325.247 74.1709 288.889C85.1146 252.531 37.3716 260.184 41.385 210.429C45.3985 160.674 111.004 159.713 142.829 166.417C174.654 173.121 170.674 150.148 207.474 111.868C244.273 73.5875 299.941 77.4313 327.775 107.086C355.609 136.74 346.678 167.366 381.488 167.366C416.297 167.366 448.122 174.071 469.003 238.173C489.885 302.275 451.717 331.578 452.407 360.475C452.99 378.959 455.219 397.354 459.066 415.442Z" fill="white"/>
<path d="M281.095 105.91H204.218V216.703H281.095V105.91Z" fill="#92E3A9"/>
<path opacity="0.4" d="M281.095 105.91H204.218V216.703H281.095V105.91Z" fill="white"/>
<path d="M270.117 121.737H215.207V200.876H270.117V121.737Z" fill="white"/>
<path d="M142.999 172.239H89.6594V249.116H142.999V172.239Z" fill="#92E3A9"/>
<path opacity="0.4" d="M142.999 172.239H89.6594V249.116H142.999V172.239Z" fill="white"/>
<path d="M135.379 183.217H97.2793V238.127H135.379V183.217Z" fill="white"/>
<path d="M401.894 172.239H348.555V249.116H401.894V172.239Z" fill="#92E3A9"/>
<path opacity="0.4" d="M401.894 172.239H348.555V249.116H401.894V172.239Z" fill="white"/>
<path d="M394.274 183.217H356.175V238.127H394.274V183.217Z" fill="white"/>
<path d="M342.484 326.039C340.223 331.691 337.826 327.169 338.199 303.36C338.38 292.213 339.16 269.443 351.494 274.452C363.331 279.268 347.729 312.947 347.729 312.947L342.484 326.039ZM359.442 329.43C359.442 329.43 385.139 302.648 375.496 294.248C365.468 285.497 357.328 306.785 353.54 317.277C345.468 339.65 346.215 344.727 350.228 340.103L359.442 329.43ZM364.857 353.466C364.857 353.466 388.384 336.711 382.234 328.888C375.835 320.748 366.53 335.852 362.11 343.313C352.693 359.254 352.534 363.245 356.265 360.272L364.857 353.466ZM371.222 377.433C371.222 377.433 394.76 360.679 388.61 352.855C382.2 344.715 372.895 359.808 368.486 367.281C359.069 383.21 358.899 387.213 362.641 384.239L371.222 377.433ZM330.138 329.249C330.138 329.249 297.205 312.11 291.858 323.721C286.284 335.807 308.997 337.638 320.121 338.316C343.863 339.786 348.532 337.638 342.97 335.083L330.138 329.249ZM334.773 348.107C334.773 348.107 299.093 337.864 296.154 350.312C293.101 363.256 315.724 360.486 326.769 358.994C350.33 355.716 354.467 352.686 348.51 351.284L334.773 348.107ZM342.936 368.683C342.936 368.683 312.535 360.837 310.331 371.43C308.07 382.453 327.12 379.627 336.424 378.066C356.265 374.743 359.702 372.086 354.637 371.046L342.936 368.683ZM347.696 385.641C347.696 385.641 318.301 374.607 314.989 384.906C311.541 395.635 330.816 394.844 340.223 394.279C360.312 393.08 363.964 390.808 359.069 389.225L347.696 385.641ZM327.99 299.573C327.99 299.573 314.57 257.855 299.331 265.441C283.503 273.355 301.795 292.134 310.964 301.144C330.511 320.363 336.56 321.697 333.993 314.993L327.99 299.573Z" fill="white"/>
<path d="M305.707 280.353C305.707 280.353 339.42 321.483 347.481 342.07C356.751 365.732 363.06 392.379 364.315 414.425" stroke="#CCCCCC" stroke-width="1.41541" stroke-linecap="round" stroke-linejoin="round"/>
<path d="M340.765 328.628L345.457 289.409" stroke="#CCCCCC" stroke-width="1.41541" stroke-linecap="round" stroke-linejoin="round"/>
<path d="M347.481 342.059L364.439 309.092" stroke="#CCCCCC" stroke-width="1.41541" stroke-linecap="round" stroke-linejoin="round"/>
<path d="M345.005 337.174L309.483 329.939" stroke="#CCCCCC" stroke-width="1.41541" stroke-linecap="round" stroke-linejoin="round"/>
<path d="M354.151 360.769L375.032 336.982" stroke="#CCCCCC" stroke-width="1.41541" stroke-linecap="round" stroke-linejoin="round"/>
<path d="M351.234 352.934L324.429 352.697" stroke="#CCCCCC" stroke-width="1.41541" stroke-linecap="round" stroke-linejoin="round"/>
<path d="M356.401 372.402L335.836 373.205" stroke="#CCCCCC" stroke-width="1.41541" stroke-linecap="round" stroke-linejoin="round"/>
<path d="M360.618 384.816L371.629 370.141" stroke="#CCCCCC" stroke-width="1.41541" stroke-linecap="round" stroke-linejoin="round"/>
<path d="M361.432 390.276L337.374 389.078" stroke="#CCCCCC" stroke-width="1.41541" stroke-linecap="round" stroke-linejoin="round"/>
<path d="M428.428 358.519C424.279 360.079 425.545 356.586 438.377 345.1C444.391 339.707 456.895 328.933 460.287 337.955C463.554 346.626 437.97 354.913 437.97 354.913L428.428 358.519ZM434.951 369.18C434.951 369.18 461.836 369.689 461.564 360.43C461.282 350.798 445.963 356.925 438.524 360.068C422.696 366.772 420.311 369.666 424.742 369.531L434.951 369.18ZM424.833 383.877C424.833 383.877 445.307 388.162 446.449 381.04C447.579 373.635 435.019 376.111 428.88 377.433C415.777 380.248 413.573 382.125 416.975 382.668L424.833 383.877ZM415.257 399.061C415.257 399.061 435.743 403.345 436.873 396.223C438.06 388.818 425.455 391.283 419.304 392.605C406.213 395.42 403.952 397.297 407.343 397.84L415.257 399.061ZM420.695 353.522C420.695 353.522 413.618 327.576 404.867 330.436C395.699 333.41 405.896 346.4 411.006 352.652C421.893 366.003 425.33 367.428 423.951 363.211L420.695 353.522ZM412.939 365.257C412.939 365.257 400.854 341.244 392.793 345.789C384.393 350.538 396.965 361.233 403.205 366.343C416.535 377.264 420.164 377.976 418.004 374.121L412.939 365.257ZM406.009 379.706C406.009 379.706 395.235 359.684 388.52 363.72C381.533 367.925 392.409 376.676 397.813 380.859C409.333 389.779 412.431 390.299 410.497 387.088L406.009 379.706ZM399.316 390.593C399.316 390.593 390.724 369.531 383.624 372.832C376.231 376.224 386.112 386.127 391.041 390.864C401.555 400.96 404.607 401.808 403.002 398.405L399.316 390.593ZM435.392 337.83C435.392 337.83 450.982 310.188 439.462 305.813C427.478 301.291 426.472 320.25 426.189 329.555C425.579 349.407 427.84 353.296 430.146 348.616L435.392 337.83Z" fill="white"/>
<path d="M434.646 316.531C434.646 316.531 429.344 354.676 422.357 369.09C414.33 385.641 402.211 403.267 391.086 414.775" stroke="#CCCCCC" stroke-width="1.41541" stroke-linecap="round" stroke-linejoin="round"/>
<path d="M426.201 358.881L449.366 342.104" stroke="#CCCCCC" stroke-width="1.41541" stroke-linecap="round" stroke-linejoin="round"/>
<path d="M422.357 369.056L448.224 361.866" stroke="#CCCCCC" stroke-width="1.41541" stroke-linecap="round" stroke-linejoin="round"/>
<path d="M423.736 365.336L410.124 342.884" stroke="#CCCCCC" stroke-width="1.41541" stroke-linecap="round" stroke-linejoin="round"/>
<path d="M415.687 381.797L438.603 381.209" stroke="#CCCCCC" stroke-width="1.41541" stroke-linecap="round" stroke-linejoin="round"/>
<path d="M418.423 376.393L405.365 362.013" stroke="#CCCCCC" stroke-width="1.41541" stroke-linecap="round" stroke-linejoin="round"/>
<path d="M410.599 388.705L400.062 378.168" stroke="#CCCCCC" stroke-width="1.41541" stroke-linecap="round" stroke-linejoin="round"/>
<path d="M406.066 397.06L419.293 395.703" stroke="#CCCCCC" stroke-width="1.41541" stroke-linecap="round" stroke-linejoin="round"/>
<path d="M403.556 400.169L392.375 386.794" stroke="#CCCCCC" stroke-width="1.41541" stroke-linecap="round" stroke-linejoin="round"/>
<path d="M81.9829 326.039C79.7218 331.691 77.325 327.169 77.6981 303.36C77.879 292.213 78.6591 269.443 90.9933 274.452C102.841 279.268 87.2286 312.947 87.2286 312.947L81.9829 326.039ZM98.9411 329.43C98.9411 329.43 124.638 302.648 115.006 294.248C104.967 285.497 96.827 306.785 93.0396 317.277C84.9675 339.65 85.7137 344.727 89.7271 340.103L98.9411 329.43ZM104.356 353.443C104.356 353.443 127.894 336.688 121.733 328.865C115.334 320.725 106.03 335.829 101.609 343.291C92.1917 359.232 92.0334 363.222 95.7756 360.249L104.356 353.443ZM110.733 377.411C110.733 377.411 134.237 360.622 128.098 352.833C121.688 344.693 112.383 359.785 107.974 367.258C98.5567 383.188 98.3871 387.19 102.129 384.217L110.733 377.411ZM69.6147 329.227C69.6147 329.227 36.6931 312.088 31.3343 323.698C25.7607 335.784 48.4734 337.615 59.598 338.294C83.3395 339.763 87.9974 337.615 82.4351 335.06L69.6147 329.227ZM74.2499 348.084C74.2499 348.084 38.5811 337.842 35.6304 350.289C32.5779 363.234 55.2002 360.464 66.2456 358.971C89.8063 355.693 93.9554 352.663 87.9974 351.261L74.2499 348.084ZM82.4125 368.66C82.4125 368.66 52.0121 360.814 49.8075 371.408C47.5464 382.43 66.5961 379.604 75.9005 378.044C95.7416 374.72 99.1785 372.063 94.1137 371.023L82.4125 368.66ZM87.1721 385.618C87.1721 385.618 57.7778 374.584 54.4653 384.884C51.0172 395.613 70.293 394.821 79.6992 394.256C99.789 393.057 103.441 390.785 98.5567 389.202L87.1721 385.618ZM67.4893 299.573C67.4893 299.573 54.0696 257.901 38.7846 265.487C22.957 273.4 41.2492 292.179 50.418 301.189C69.9765 320.408 76.0249 321.743 73.4472 315.038L67.4893 299.573Z" fill="white"/>
<path d="M45.2062 280.353C45.2062 280.353 78.9191 321.483 86.9799 342.07C96.2504 365.732 102.559 392.379 103.814 414.425" stroke="#CCCCCC" stroke-width="1.41541" stroke-linecap="round" stroke-linejoin="round"/>
<path d="M80.2758 328.628L84.9562 289.409" stroke="#CCCCCC" stroke-width="1.41541" stroke-linecap="round" stroke-linejoin="round"/>
<path d="M86.9799 342.059L103.938 309.092" stroke="#CCCCCC" stroke-width="1.41541" stroke-linecap="round" stroke-linejoin="round"/>
<path d="M84.504 337.174L48.9935 329.939" stroke="#CCCCCC" stroke-width="1.41541" stroke-linecap="round" stroke-linejoin="round"/>
<path d="M93.6501 360.769L114.531 336.982" stroke="#CCCCCC" stroke-width="1.41541" stroke-linecap="round" stroke-linejoin="round"/>
<path d="M90.7334 352.934L63.9281 352.697" stroke="#CCCCCC" stroke-width="1.41541" stroke-linecap="round" stroke-linejoin="round"/>
<path d="M95.9 372.402L75.3353 373.205" stroke="#CCCCCC" stroke-width="1.41541" stroke-linecap="round" stroke-linejoin="round"/>
<path d="M100.128 384.816L111.14 370.141" stroke="#CCCCCC" stroke-width="1.41541" stroke-linecap="round" stroke-linejoin="round"/>
<path d="M100.931 390.276L76.8728 389.078" stroke="#CCCCCC" stroke-width="1.41541" stroke-linecap="round" stroke-linejoin="round"/>
<path d="M167.927 358.519C163.778 360.079 165.044 356.586 177.876 345.1C183.902 339.707 196.394 328.933 199.786 337.955C203.053 346.626 177.469 354.913 177.469 354.913L167.927 358.519ZM174.45 369.18C174.45 369.18 201.335 369.689 201.064 360.43C200.781 350.798 185.462 356.925 178.023 360.068C162.195 366.772 159.81 369.666 164.242 369.531L174.45 369.18ZM164.332 383.877C164.332 383.877 184.806 388.162 185.948 381.04C187.079 373.635 174.518 376.111 168.379 377.433C155.231 380.248 153.072 382.102 156.475 382.668L164.332 383.877ZM154.711 399.061C154.711 399.061 175.197 403.345 176.327 396.223C177.514 388.818 164.909 391.283 158.77 392.605C145.655 395.432 143.451 397.308 146.865 397.851L154.711 399.061ZM160.149 353.522C160.149 353.522 153.083 327.576 144.321 330.436C135.153 333.41 145.339 346.4 150.449 352.652C161.336 366.003 164.773 367.428 163.394 363.211L160.149 353.522ZM152.393 365.257C152.393 365.257 140.308 341.244 132.247 345.789C123.847 350.538 136.419 361.233 142.671 366.343C156 377.264 159.629 377.976 157.458 374.121L152.393 365.257ZM145.463 379.706C145.463 379.706 134.689 359.684 127.974 363.72C120.987 367.925 131.863 376.676 137.267 380.859C148.787 389.779 151.896 390.299 149.951 387.088L145.463 379.706ZM138.77 390.593C138.77 390.593 130.19 369.531 123.078 372.832C115.685 376.224 125.577 386.127 130.495 390.864C141.009 400.96 144.061 401.808 142.456 398.405L138.77 390.593ZM174.846 337.83C174.846 337.83 190.448 310.188 178.927 305.813C166.932 301.291 165.937 320.25 165.643 329.555C165.044 349.407 167.294 353.296 169.6 348.616L174.846 337.83Z" fill="white"/>
<path d="M174.145 316.531C174.145 316.531 168.843 354.676 161.856 369.09C153.829 385.641 141.71 403.267 130.585 414.775" stroke="#CCCCCC" stroke-width="1.41541" stroke-linecap="round" stroke-linejoin="round"/>
<path d="M165.7 358.881L188.865 342.104" stroke="#CCCCCC" stroke-width="1.41541" stroke-linecap="round" stroke-linejoin="round"/>
<path d="M161.856 369.056L187.723 361.866" stroke="#CCCCCC" stroke-width="1.41541" stroke-linecap="round" stroke-linejoin="round"/>
<path d="M163.235 365.336L149.624 342.884" stroke="#CCCCCC" stroke-width="1.41541" stroke-linecap="round" stroke-linejoin="round"/>
<path d="M155.186 381.797L178.102 381.209" stroke="#CCCCCC" stroke-width="1.41541" stroke-linecap="round" stroke-linejoin="round"/>
<path d="M157.922 376.393L144.864 362.013" stroke="#CCCCCC" stroke-width="1.41541" stroke-linecap="round" stroke-linejoin="round"/>
<path d="M150.098 388.705L139.562 378.168" stroke="#CCCCCC" stroke-width="1.41541" stroke-linecap="round" stroke-linejoin="round"/>
<path d="M145.565 397.06L158.792 395.703" stroke="#CCCCCC" stroke-width="1.41541" stroke-linecap="round" stroke-linejoin="round"/>
<path d="M143.066 400.169L131.874 386.794" stroke="#CCCCCC" stroke-width="1.41541" stroke-linecap="round" stroke-linejoin="round"/>
<path d="M232.64 181.656C232.64 181.656 218.169 177.044 207.101 188.44C196.033 199.836 201.866 222.594 201.866 230.587C201.866 238.58 191.691 289.375 191.691 289.375C191.691 289.375 186.762 307.837 200.306 319.538C213.85 331.239 238.88 330.222 249.564 307.701C260.248 285.181 248.92 253.073 248.92 236.477C248.92 219.88 251.384 208.79 247.687 196.794C246.565 193.256 244.614 190.036 241.997 187.403C239.38 184.77 236.172 182.8 232.64 181.656Z" fill="#263238" stroke="#263238" stroke-width="1.13055" stroke-linecap="round" stroke-linejoin="round"/>
<path d="M228.344 190.282C228.344 190.282 214.393 207.625 204.975 212.52" stroke="white" stroke-width="1.13055" stroke-linecap="round" stroke-linejoin="round"/>
<path d="M216.281 188.779C216.281 188.779 209.124 206.11 202.714 211.017" stroke="white" stroke-width="1.13055" stroke-linecap="round" stroke-linejoin="round"/>
<path d="M256.427 248.393C257.763 249.33 258.886 250.54 259.72 251.943C260.554 253.346 261.081 254.911 261.265 256.533C262.091 262.298 255.94 275.628 254.708 282.219C253.544 290.22 252.793 298.277 252.458 306.356C252.458 308.414 259.468 338.893 260.7 346.309C261.932 353.726 260.078 371.182 259.049 372.459C258.021 373.737 255.138 367.722 254.934 363.81C254.731 359.899 247.111 329.826 244.228 320.77C241.345 311.715 242.159 299.765 242.159 299.765C242.159 299.765 246.082 272.372 246.082 261.869C246.082 251.366 246.399 243.509 246.399 243.509L256.427 248.393Z" fill="#92E3A9" stroke="#263238" stroke-width="1.13055" stroke-linecap="round" stroke-linejoin="round"/>
<path d="M259.027 372.414C260.056 371.181 261.91 353.669 260.677 346.264C259.445 338.859 252.458 308.368 252.458 306.356C252.798 298.292 253.553 290.25 254.719 282.264C255.172 280.15 255.753 278.066 256.46 276.023C254.038 277.19 251.383 277.793 248.694 277.787C247.258 277.787 245.856 279.11 244.511 281.36C243.38 290.924 242.148 299.765 242.148 299.765C242.148 299.765 241.334 311.703 244.217 320.77C247.1 329.837 254.719 359.899 254.923 363.81C255.126 367.722 257.998 373.646 259.027 372.414Z" fill="white" stroke="#263238" stroke-width="1.13055" stroke-linecap="round" stroke-linejoin="round"/>
<path d="M217.683 415.657C218.135 410.592 219.084 400.282 219.695 396.302C220.52 390.955 222.16 380.034 222.16 380.034L226.331 415.657H254.912C255.94 407.89 258.529 387.066 259.027 372.414C259.649 354.088 245.845 316.192 245.46 313.309C245.076 310.426 245.867 302.003 245.867 299.516C245.867 297.029 253.057 281.246 253.668 273.208C254.278 265.17 256.144 262.706 256.144 262.706L257.173 249.139C256.551 248.935 247.314 241.666 238.044 238.964C232.406 237.364 226.453 237.224 220.746 238.557C220.746 238.557 207.361 244.526 200.566 247.409C193.772 250.292 188.187 255.854 188.017 263.056C187.847 270.258 201.188 300.952 202.432 303.224C203.675 305.497 199.752 313.512 198.102 317.639C196.451 321.765 189.656 336.587 185.134 353.059C181.256 367.123 183.845 404.917 184.693 415.657H217.683Z" fill="#92E3A9" stroke="#263238" stroke-width="1.13055" stroke-linecap="round" stroke-linejoin="round"/>
<path d="M224.104 297.538C224.104 297.538 234.664 298.804 245.234 288.663" stroke="#263238" stroke-width="1.13055" stroke-linecap="round" stroke-linejoin="round"/>
<path d="M231.43 268.008C234.516 267.182 238.439 254.441 238.846 247.828C239.073 244.131 239.299 241.372 239.197 239.337C238.813 239.213 238.417 239.077 238.066 238.964C232.428 237.364 226.476 237.224 220.769 238.557L215.32 240.976C214.865 243.905 215.18 246.901 216.236 249.67C218.463 255.854 228.344 268.833 231.43 268.008Z" fill="white" stroke="#263238" stroke-width="1.13055" stroke-linecap="round" stroke-linejoin="round"/>
<path d="M217.637 232.237C217.637 232.237 218.678 244.368 219.299 247.341C219.921 250.315 226.173 262.038 229.712 261.394C233.25 260.75 235.5 245.431 235.5 243.938C235.5 242.446 235.918 230.372 235.918 230.372C235.918 230.372 228.468 236.488 217.637 232.237Z" fill="white" stroke="#263238" stroke-width="1.13055" stroke-linecap="round" stroke-linejoin="round"/>
<path d="M197.242 249.467C197.242 249.467 188.808 249.885 184.071 259.359C179.334 268.833 184.885 275.187 186.74 278.917C188.594 282.648 193.749 297.865 195.388 302.399C197.028 306.932 200.34 312.28 206.106 319.696C211.872 327.113 224.014 342.963 224.014 342.963L227.315 348.729C227.315 348.729 232.877 355.116 233.488 355.32C234.098 355.523 237.818 360.26 239.253 357.377C240.689 354.495 239.253 344.207 239.253 344.207C239.253 344.207 241.515 348.729 242.351 347.7C243.188 346.671 242.136 344.41 241.322 341.934C240.508 339.458 232.888 334.733 231.227 334.518C229.565 334.303 227.518 332.257 225.054 327.316C222.589 322.376 220.724 313.75 216.812 308.572C212.9 303.394 207.768 295.808 207.768 295.808C207.768 295.808 202.002 275.209 202.002 274.384C202.423 270.537 201.859 266.647 200.363 263.078" fill="#92E3A9"/>
<path d="M197.242 249.467C197.242 249.467 188.808 249.885 184.071 259.359C179.334 268.833 184.885 275.187 186.74 278.917C188.594 282.648 193.749 297.865 195.388 302.399C197.028 306.932 200.34 312.28 206.106 319.696C211.872 327.113 224.014 342.963 224.014 342.963L227.315 348.729C227.315 348.729 232.877 355.116 233.488 355.32C234.098 355.523 237.818 360.26 239.253 357.377C240.689 354.495 239.253 344.207 239.253 344.207C239.253 344.207 241.515 348.729 242.351 347.7C243.188 346.671 242.136 344.41 241.322 341.934C240.508 339.458 232.888 334.733 231.227 334.518C229.565 334.303 227.518 332.257 225.054 327.316C222.589 322.376 220.724 313.75 216.812 308.572C212.9 303.394 207.768 295.808 207.768 295.808C207.768 295.808 202.002 275.209 202.002 274.384C202.423 270.537 201.859 266.647 200.363 263.078" stroke="#263238" stroke-width="1.13055" stroke-linecap="round" stroke-linejoin="round"/>
<path d="M231.227 334.518C229.576 334.314 227.518 332.257 225.054 327.316C222.589 322.376 220.724 313.75 216.812 308.572C212.9 303.394 207.768 295.808 207.768 295.808C207.768 295.808 203.867 281.857 202.488 276.464C194.913 275.402 189.916 276.928 186.74 278.872C188.594 282.581 193.749 297.82 195.388 302.354C197.027 306.887 200.34 312.235 206.106 319.651C211.872 327.068 224.014 342.918 224.014 342.918L227.315 348.684C227.315 348.684 232.877 355.071 233.488 355.275C234.098 355.478 237.818 360.215 239.253 357.332C240.689 354.449 239.253 344.161 239.253 344.161C239.253 344.161 241.515 348.684 242.351 347.655C243.188 346.626 242.136 344.365 241.322 341.889C240.508 339.413 232.888 334.733 231.227 334.518Z" fill="white" stroke="#263238" stroke-width="1.13055" stroke-linecap="round" stroke-linejoin="round"/>
<path d="M217.683 415.657C218.135 410.592 219.084 400.282 219.695 396.302C220.52 390.955 222.16 380.034 222.16 380.034L226.331 415.657H254.912C255.94 407.89 258.529 387.066 259.027 372.414C259.287 364.783 257.037 353.748 254.301 343.268C230.141 348.559 202.748 344.727 188.526 341.968C187.327 345.507 186.152 349.226 185.134 353.059C181.256 367.123 183.845 404.917 184.693 415.657H217.683Z" fill="#263238" stroke="#263238" stroke-width="1.13055" stroke-linecap="round" stroke-linejoin="round"/>
<path d="M210.481 214.171C210.481 214.171 208.638 213.346 208.638 217.043C208.638 220.74 212.742 223.193 212.742 223.193L210.481 214.171Z" fill="white" stroke="#263238" stroke-width="1.13055" stroke-linecap="round" stroke-linejoin="round"/>
<path d="M231.634 193.866C231.634 193.866 225.054 203.137 219.277 206.845C216.296 208.805 213.205 210.59 210.018 212.193C210.018 212.193 212.9 224.143 214.133 228.02C215.365 231.898 219.062 238.749 226.478 239.156C233.895 239.563 237.196 231.729 238.643 228.02C239.467 226.104 239.908 224.046 239.943 221.961C240.984 221.303 241.871 220.43 242.546 219.4C243.221 218.37 243.667 217.208 243.855 215.991C244.262 212.08 243.233 212.283 243.233 212.283C243.233 212.283 242.103 213.561 239.649 211.639C237.659 210.158 230.978 199.429 231.634 193.866Z" fill="white" stroke="#263238" stroke-width="1.13055" stroke-linecap="round" stroke-linejoin="round"/>
<path d="M215.93 217.28C215.93 217.28 218.836 215.155 223.087 217.28" stroke="#263238" stroke-width="1.13055" stroke-linecap="round" stroke-linejoin="round"/>
<path d="M229.079 217.664C229.079 217.664 232.561 214.567 236.235 217.088" stroke="#263238" stroke-width="1.13055" stroke-linecap="round" stroke-linejoin="round"/>
<path d="M215.354 212.634C215.354 212.634 216.903 209.739 222.137 211.096" stroke="#263238" stroke-width="1.13055" stroke-linecap="round" stroke-linejoin="round"/>
<path d="M229.079 211.288C230.263 210.424 231.723 210.025 233.182 210.167C234.641 210.309 235.997 210.981 236.992 212.057" stroke="#263238" stroke-width="1.13055" stroke-linecap="round" stroke-linejoin="round"/>
<path d="M228.502 224.041C228.502 224.041 225.404 226.166 224.059 224.041" stroke="#263238" stroke-width="1.13055" stroke-linecap="round" stroke-linejoin="round"/>
<path d="M222.894 228.495C222.894 228.495 226.761 230.033 228.694 228.303" stroke="#263238" stroke-width="1.13055" stroke-linecap="round" stroke-linejoin="round"/>
<path d="M157.549 339.628C157.549 339.628 166.593 359.706 168.752 363.754C170.912 367.801 173.422 379.321 173.727 386.161C174.032 393.001 173.727 394.414 172.178 394.256C170.629 394.098 169.996 385.539 169.996 384.137V381.967C169.996 381.967 169.216 390.05 167.972 391.61C166.729 393.171 165.01 394.878 164.863 393.951C164.716 393.024 165.169 391.452 165.79 389.123C166.166 387.333 166.273 385.496 166.107 383.674C166.107 383.674 165.169 388.027 162.998 389.587C160.827 391.147 158.476 391.769 159.256 390.525C160.036 389.282 162.06 387.88 162.523 386.319C162.844 384.891 163.003 383.431 162.998 381.967C162.998 381.967 160.036 386.783 158.792 387.563C157.549 388.343 157.549 386.636 158.329 385.856C159.109 385.076 160.816 379.785 160.816 379.785C160.816 379.785 160.341 379.468 158.171 374.652C156 369.836 154.779 361.414 154.123 358.146C153.467 354.879 152.258 350.526 152.258 350.526L140.274 330.448C140.274 330.448 139.336 325.62 143.847 324.795C148.357 323.97 157.549 339.628 157.549 339.628Z" fill="white"/>
<mask id="mask0_798_59" style="mask-type:luminance" maskUnits="userSpaceOnUse" x="140" y="324" width="34" height="71">
<path d="M157.549 339.628C157.549 339.628 166.593 359.706 168.752 363.754C170.912 367.801 173.422 379.321 173.727 386.161C174.032 393.001 173.727 394.414 172.178 394.256C170.629 394.098 169.996 385.539 169.996 384.137V381.967C169.996 381.967 169.216 390.05 167.972 391.61C166.729 393.171 165.01 394.878 164.863 393.951C164.716 393.024 165.169 391.452 165.79 389.123C166.166 387.333 166.273 385.496 166.107 383.674C166.107 383.674 165.169 388.027 162.998 389.587C160.827 391.147 158.476 391.769 159.256 390.525C160.036 389.282 162.06 387.88 162.523 386.319C162.844 384.891 163.003 383.431 162.998 381.967C162.998 381.967 160.036 386.783 158.792 387.563C157.549 388.343 157.549 386.636 158.329 385.856C159.109 385.076 160.816 379.785 160.816 379.785C160.816 379.785 160.341 379.468 158.171 374.652C156 369.836 154.779 361.414 154.123 358.146C153.467 354.879 152.258 350.526 152.258 350.526L140.274 330.448C140.274 330.448 139.336 325.62 143.847 324.795C148.357 323.97 157.549 339.628 157.549 339.628Z" fill="white"/>
</mask>
<g mask="url(#mask0_798_59)">
<path opacity="0.15" d="M157.549 339.628C157.549 339.628 166.593 359.706 168.752 363.754C170.912 367.801 173.422 379.321 173.727 386.161C174.032 393.001 173.727 394.414 172.178 394.256C170.629 394.098 169.996 385.539 169.996 384.137V381.967C169.996 381.967 169.216 390.05 167.972 391.61C166.729 393.171 165.01 394.878 164.863 393.951C164.716 393.024 165.169 391.452 165.79 389.123C166.166 387.333 166.273 385.496 166.107 383.674C166.107 383.674 165.169 388.027 162.998 389.587C160.827 391.147 158.476 391.769 159.256 390.525C160.036 389.282 162.06 387.88 162.523 386.319C162.844 384.891 163.003 383.431 162.998 381.967C162.998 381.967 160.036 386.783 158.792 387.563C157.549 388.343 157.549 386.636 158.329 385.856C159.109 385.076 160.816 379.785 160.816 379.785C160.816 379.785 160.341 379.468 158.171 374.652C156 369.836 154.779 361.414 154.123 358.146C153.467 354.879 152.258 350.526 152.258 350.526L140.274 330.448C140.274 330.448 139.336 325.62 143.847 324.795C148.357 323.97 157.549 339.628 157.549 339.628Z" fill="black"/>
</g>
<path d="M157.549 339.628C157.549 339.628 166.593 359.706 168.752 363.754C170.912 367.801 173.422 379.321 173.727 386.161C174.032 393.001 173.727 394.414 172.178 394.256C170.629 394.098 169.996 385.539 169.996 384.137V381.967C169.996 381.967 169.216 390.05 167.972 391.61C166.729 393.171 165.01 394.878 164.863 393.951C164.716 393.024 165.169 391.452 165.79 389.123C166.166 387.333 166.273 385.496 166.107 383.674C166.107 383.674 165.169 388.027 162.998 389.587C160.827 391.147 158.476 391.769 159.256 390.525C160.036 389.282 162.06 387.88 162.523 386.319C162.844 384.891 163.003 383.431 162.998 381.967C162.998 381.967 160.036 386.783 158.792 387.563C157.549 388.343 157.549 386.636 158.329 385.856C159.109 385.076 160.816 379.785 160.816 379.785C160.816 379.785 160.341 379.468 158.171 374.652C156 369.836 154.779 361.414 154.123 358.146C153.467 354.879 152.258 350.526 152.258 350.526L140.274 330.448C140.274 330.448 139.336 325.62 143.847 324.795C148.357 323.97 157.549 339.628 157.549 339.628Z" stroke="#263238" stroke-width="1.13055" stroke-linecap="round" stroke-linejoin="round"/>
<path d="M168.798 369.667C168.798 369.667 170.358 377.298 170.2 380.712C170.041 384.126 170.821 385.856 169.725 385.856C168.628 385.856 168.334 385.076 167.238 381.65C166.516 379.11 166.046 376.505 165.836 373.872C165.836 373.872 161.947 373.872 160.545 368.106" fill="white"/>
<mask id="mask1_798_59" style="mask-type:luminance" maskUnits="userSpaceOnUse" x="160" y="368" width="11" height="18">
<path d="M168.798 369.667C168.798 369.667 170.358 377.298 170.2 380.712C170.041 384.126 170.821 385.856 169.725 385.856C168.628 385.856 168.334 385.076 167.238 381.65C166.516 379.11 166.046 376.505 165.836 373.872C165.836 373.872 161.947 373.872 160.545 368.106" fill="white"/>
</mask>
<g mask="url(#mask1_798_59)">
<path opacity="0.15" d="M168.798 369.667C168.798 369.667 170.358 377.298 170.2 380.712C170.041 384.126 170.821 385.856 169.725 385.856C168.628 385.856 168.334 385.076 167.238 381.65C166.516 379.11 166.046 376.505 165.836 373.872C165.836 373.872 161.947 373.872 160.545 368.106" fill="black"/>
</g>
<path d="M168.798 369.667C168.798 369.667 170.358 377.298 170.2 380.712C170.041 384.126 170.821 385.856 169.725 385.856C168.628 385.856 168.334 385.076 167.238 381.65C166.516 379.11 166.046 376.505 165.836 373.872C165.836 373.872 161.947 373.872 160.545 368.106" stroke="#263238" stroke-width="1.13055" stroke-linecap="round" stroke-linejoin="round"/>
<path d="M99.3256 415.657H156.622C156.904 404.94 158.781 334.936 159.346 331.804C159.968 328.413 163.043 296.418 163.349 283.813C163.654 271.207 158.114 253.039 158.114 251.807C158.114 250.575 157.198 242.887 148.584 236.42C139.969 229.953 133.197 229.965 131.354 230.88C131.354 230.88 124.571 235.504 113.808 246.889C103.045 258.274 99.3482 267.499 99.3482 285.034C99.3564 295.646 100.283 306.237 102.118 316.689C102.118 316.689 98.7264 371.453 98.7264 372.685C98.7264 373.917 99.2239 408.342 99.3256 415.657Z" fill="white" stroke="#263238" stroke-width="1.13055" stroke-linecap="round" stroke-linejoin="round"/>
<path d="M125.328 291.862C126.544 291.86 127.76 291.792 128.969 291.659C142.151 290.223 153.615 276.747 161.178 265.102C160.827 263.418 160.477 261.801 160.126 260.32C152.993 271.953 141.461 286.888 128.607 288.29C110.71 290.234 102.604 276.136 100.343 271.58C100.027 273.321 99.7891 275.153 99.6309 277.086C103.633 283.146 111.716 291.862 125.328 291.862Z" fill="#263238"/>
<path d="M121.032 264.661L124.311 265.532C127.69 253.227 134.33 242.064 143.53 233.221C142.435 232.644 141.302 232.141 140.138 231.717C130.985 240.829 124.395 252.192 121.032 264.661Z" fill="#263238"/>
<path d="M124.254 280.885C125.023 280.489 141.043 272.145 157.956 250.36C157.693 248.994 157.276 247.663 156.712 246.392C139.686 269.003 122.897 277.753 122.717 277.843L124.254 280.885Z" fill="#263238"/>
<path d="M107.533 268.618L110.925 268.109C110.925 268.019 109.942 260.003 117.833 242.797C116.567 244.051 115.244 245.408 113.842 246.889C112.937 247.839 112.101 248.777 111.298 249.715C106.674 262.265 107.488 268.279 107.533 268.618Z" fill="#263238"/>
<path d="M135.503 318.871C116.012 321.404 106.109 317.311 101.677 314.168C101.937 315.819 102.118 316.734 102.118 316.734C102.118 316.734 102.118 317.334 102.016 318.419C106.358 320.804 113.322 323.065 123.983 323.065C127.984 323.048 131.979 322.772 135.944 322.24C144.928 321.085 153.564 318.033 161.28 313.286C161.415 311.862 161.54 310.403 161.664 308.922C153.843 314.242 144.882 317.65 135.503 318.871Z" fill="#263238"/>
<path d="M134.497 339.741C143.457 337.462 151.986 333.743 159.753 328.729C159.889 327.508 160.047 326.016 160.228 324.309C152.16 329.879 143.175 333.985 133.683 336.44C120.557 339.662 107.816 336.067 101.089 333.478C101.021 334.608 100.942 335.829 100.875 337.05C107.847 339.671 115.223 341.052 122.671 341.132C126.655 341.14 130.624 340.673 134.497 339.741Z" fill="#263238"/>
<path d="M99.3595 361.9C99.2804 363.121 99.2125 364.274 99.156 365.291C107.896 367.389 116.849 368.478 125.837 368.536C136.889 368.656 147.863 366.669 158.171 362.68C158.171 361.436 158.25 360.193 158.284 358.983C135.582 368.536 111.298 364.805 99.3595 361.9Z" fill="#263238"/>
<path d="M136.973 350.707C124.806 353.656 112.069 353.266 100.106 349.577C100.038 350.764 99.9587 351.94 99.8909 353.104C106.484 355.12 113.346 356.123 120.241 356.077C126.143 356.071 132.025 355.396 137.776 354.065C145.061 352.377 152.099 349.755 158.713 346.264C158.713 344.862 158.815 343.528 158.86 342.285C151.997 346.109 144.629 348.944 136.973 350.707Z" fill="#263238"/>
<path d="M127.476 302.964C113.57 303.665 104.583 298.533 99.5969 294.304C99.6761 295.864 99.7778 297.379 99.8909 298.827C107.213 303.951 115.975 306.612 124.91 306.424C125.803 306.424 126.719 306.424 127.646 306.356C141.292 305.666 153.366 299.697 163.122 289.115C163.235 287.137 163.315 285.328 163.348 283.824V283.598C155.378 293.49 143.813 302.128 127.476 302.964Z" fill="#263238"/>
<path d="M150.573 238.071C149.952 237.517 149.307 236.94 148.584 236.42C139.969 229.965 133.197 229.965 131.354 230.881C127.763 233.508 124.363 236.387 121.179 239.495C120.856 240.882 120.855 242.325 121.176 243.713C121.498 245.101 122.133 246.396 123.033 247.5C128.878 254.882 147.905 283.191 152.88 277.041C157.854 270.891 156.565 253.966 151.026 239.19C150.89 238.806 150.709 238.433 150.573 238.071Z" fill="#92E3A9" stroke="#263238" stroke-width="1.13055" stroke-linecap="round" stroke-linejoin="round"/>
<path d="M132.62 270.574C132.62 270.574 149.239 305.96 152.62 311.5C154.109 314.132 155.863 316.606 157.854 318.882C157.854 318.882 172.551 323.823 185.157 328.447C197.762 333.071 219.673 339.142 224.274 340.419C228.875 341.697 236.574 341.652 237.84 341.652C239.107 341.652 253.838 345.043 254.799 345.654C255.76 346.264 254.493 347.497 252.334 348.118C250.175 348.74 243.109 349.339 239.717 350.572C236.325 351.804 233.567 351.499 228.649 350.266C224.773 349.075 221.054 347.423 217.57 345.348C217.57 345.348 177.198 342.533 167.667 341.403C158.137 340.272 147.317 338.938 143.055 334.02C134.502 324.364 126.608 314.144 119.427 303.428C113.638 294.677 103.045 282.388 107.059 271.252" fill="white"/>
<path d="M132.62 270.574C132.62 270.574 149.239 305.96 152.62 311.5C154.109 314.132 155.863 316.606 157.854 318.882C157.854 318.882 172.551 323.823 185.157 328.447C197.762 333.071 219.673 339.142 224.274 340.419C228.875 341.697 236.574 341.652 237.84 341.652C239.107 341.652 253.838 345.043 254.799 345.654C255.76 346.264 254.493 347.497 252.334 348.118C250.175 348.74 243.109 349.339 239.717 350.572C236.325 351.804 233.567 351.499 228.649 350.266C224.773 349.075 221.054 347.423 217.57 345.348C217.57 345.348 177.198 342.533 167.667 341.403C158.137 340.272 147.317 338.938 143.055 334.02C134.502 324.364 126.608 314.144 119.427 303.428C113.638 294.677 103.045 282.388 107.059 271.252" stroke="#263238" stroke-width="1.13055" stroke-linecap="round" stroke-linejoin="round"/>
<path d="M237.761 341.652C236.529 341.652 228.841 341.652 224.195 340.419C219.548 339.187 197.638 333.06 185.032 328.447C172.427 323.834 157.73 318.882 157.73 318.882C155.739 316.606 153.985 314.132 152.495 311.5C151.105 309.239 147.464 301.856 143.654 293.999C131.388 297.21 125.215 303.044 122.174 307.566C128.598 316.756 135.54 325.573 142.965 333.975C147.272 338.893 158.035 340.125 167.577 341.358C177.119 342.59 217.423 345.36 217.423 345.36C220.907 347.435 224.626 349.086 228.502 350.278C233.42 351.51 236.19 351.815 239.57 350.583C242.95 349.351 250.039 348.74 252.187 348.13C254.335 347.519 255.579 346.276 254.652 345.665C253.724 345.055 239.039 341.652 237.761 341.652Z" fill="white"/>
<mask id="mask2_798_59" style="mask-type:luminance" maskUnits="userSpaceOnUse" x="122" y="293" width="133" height="59">
<path d="M237.761 341.652C236.529 341.652 228.841 341.652 224.195 340.419C219.548 339.187 197.638 333.06 185.032 328.447C172.427 323.834 157.73 318.882 157.73 318.882C155.739 316.606 153.985 314.132 152.495 311.5C151.105 309.239 147.464 301.856 143.654 293.999C131.388 297.21 125.215 303.044 122.174 307.566C128.598 316.756 135.54 325.573 142.965 333.975C147.272 338.893 158.035 340.125 167.577 341.358C177.119 342.59 217.423 345.36 217.423 345.36C220.907 347.435 224.626 349.086 228.502 350.278C233.42 351.51 236.19 351.815 239.57 350.583C242.95 349.351 250.039 348.74 252.187 348.13C254.335 347.519 255.579 346.276 254.652 345.665C253.724 345.055 239.039 341.652 237.761 341.652Z" fill="white"/>
</mask>
<g mask="url(#mask2_798_59)">
<path opacity="0.15" d="M237.761 341.652C236.529 341.652 228.841 341.652 224.195 340.419C219.548 339.187 197.638 333.06 185.032 328.447C172.427 323.834 157.73 318.882 157.73 318.882C155.739 316.606 153.985 314.132 152.495 311.5C151.105 309.239 147.464 301.856 143.654 293.999C131.388 297.21 125.215 303.044 122.174 307.566C128.598 316.756 135.54 325.573 142.965 333.975C147.272 338.893 158.035 340.125 167.577 341.358C177.119 342.59 217.423 345.36 217.423 345.36C220.907 347.435 224.626 349.086 228.502 350.278C233.42 351.51 236.19 351.815 239.57 350.583C242.95 349.351 250.039 348.74 252.187 348.13C254.335 347.519 255.579 346.276 254.652 345.665C253.724 345.055 239.039 341.652 237.761 341.652Z" fill="black"/>
</g>
<path d="M237.761 341.652C236.529 341.652 228.841 341.652 224.195 340.419C219.548 339.187 197.638 333.06 185.032 328.447C172.427 323.834 157.73 318.882 157.73 318.882C155.739 316.606 153.985 314.132 152.495 311.5C151.105 309.239 147.464 301.856 143.654 293.999C131.388 297.21 125.215 303.044 122.174 307.566C128.598 316.756 135.54 325.573 142.965 333.975C147.272 338.893 158.035 340.125 167.577 341.358C177.119 342.59 217.423 345.36 217.423 345.36C220.907 347.435 224.626 349.086 228.502 350.278C233.42 351.51 236.19 351.815 239.57 350.583C242.95 349.351 250.039 348.74 252.187 348.13C254.335 347.519 255.579 346.276 254.652 345.665C253.724 345.055 239.039 341.652 237.761 341.652Z" stroke="#263238" stroke-width="1.13055" stroke-linecap="round" stroke-linejoin="round"/>
<path d="M156.622 415.657C156.757 410.321 157.3 390.163 157.877 370.933C149.726 374.115 141.18 376.169 132.473 377.038C114.385 379.152 103.961 374.777 98.8056 371.385C98.8056 372.142 98.7378 372.617 98.7378 372.719C98.7378 373.85 99.2239 408.331 99.3257 415.68L156.622 415.657Z" fill="#92E3A9" stroke="#263238" stroke-width="1.13055" stroke-linecap="round" stroke-linejoin="round"/>
<path d="M142.207 413.091C139.403 402.452 146.187 388.886 136.396 381.843" stroke="#263238" stroke-width="1.13055" stroke-linecap="round" stroke-linejoin="round"/>
<path d="M142.207 388.615L154.802 376.518" stroke="#263238" stroke-width="1.13055" stroke-linecap="round" stroke-linejoin="round"/>
<path d="M110.631 388.694L110.303 413.091" stroke="#263238" stroke-width="1.13055" stroke-linecap="round" stroke-linejoin="round"/>
<path d="M110.744 379.909L110.688 384.364" stroke="#263238" stroke-width="1.13055" stroke-linecap="round" stroke-linejoin="round"/>
<path d="M161.223 181.272C166.227 182.599 170.649 185.549 173.795 189.661C175.928 192.391 177.374 195.593 178.012 198.999C179.515 208.157 174.36 210.983 176.022 215.143C177.684 219.304 179.346 221.463 178.012 223.464C176.678 225.465 172.529 225.793 171.862 225.963C171.194 226.132 169.86 233.775 167.204 237.11C164.547 240.445 155.22 236.612 155.22 236.612C155.22 236.612 151.399 243.102 150.234 245.261C149.07 247.42 151.365 260.399 149.725 266.221C148.086 272.044 144.242 265.724 136.916 256.578C129.59 247.432 126.267 239.936 126.606 237.438C126.945 234.939 132.756 229.117 133.762 226.958C134.768 224.798 135.254 223.792 134.757 221.802C134.259 219.812 128.437 211.627 128.437 201.17C128.437 190.712 136.747 180.707 147.736 179.87C152.278 179.572 156.839 180.046 161.223 181.272Z" fill="white"/>
<mask id="mask3_798_59" style="mask-type:luminance" maskUnits="userSpaceOnUse" x="126" y="179" width="53" height="90">
<path d="M161.223 181.272C166.227 182.599 170.649 185.549 173.795 189.661C175.928 192.391 177.374 195.593 178.012 198.999C179.515 208.157 174.36 210.983 176.022 215.143C177.684 219.304 179.346 221.463 178.012 223.464C176.678 225.465 172.529 225.793 171.862 225.963C171.194 226.132 169.86 233.775 167.204 237.11C164.547 240.445 155.22 236.612 155.22 236.612C155.22 236.612 151.399 243.102 150.234 245.261C149.07 247.42 151.365 260.399 149.725 266.221C148.086 272.044 144.242 265.724 136.916 256.578C129.59 247.432 126.267 239.936 126.606 237.438C126.945 234.939 132.756 229.117 133.762 226.958C134.768 224.798 135.254 223.792 134.757 221.802C134.259 219.812 128.437 211.627 128.437 201.17C128.437 190.712 136.747 180.707 147.736 179.87C152.278 179.572 156.839 180.046 161.223 181.272Z" fill="white"/>
</mask>
<g mask="url(#mask3_798_59)">
<path opacity="0.15" d="M161.223 181.272C166.227 182.599 170.649 185.549 173.795 189.661C175.928 192.391 177.374 195.593 178.012 198.999C179.515 208.157 174.36 210.983 176.022 215.143C177.684 219.304 179.346 221.463 178.012 223.464C176.678 225.465 172.529 225.793 171.862 225.963C171.194 226.132 169.86 233.775 167.204 237.11C164.547 240.445 155.22 236.612 155.22 236.612C155.22 236.612 151.399 243.102 150.234 245.261C149.07 247.42 151.365 260.399 149.725 266.221C148.086 272.044 144.242 265.724 136.916 256.578C129.59 247.432 126.267 239.936 126.606 237.438C126.945 234.939 132.756 229.117 133.762 226.958C134.768 224.798 135.254 223.792 134.757 221.802C134.259 219.812 128.437 211.627 128.437 201.17C128.437 190.712 136.747 180.707 147.736 179.87C152.278 179.572 156.839 180.046 161.223 181.272Z" fill="black"/>
</g>
<path d="M161.223 181.272C166.227 182.599 170.649 185.549 173.795 189.661C175.928 192.391 177.374 195.593 178.012 198.999C179.515 208.157 174.36 210.983 176.022 215.143C177.684 219.304 179.346 221.463 178.012 223.464C176.678 225.465 172.529 225.793 171.862 225.963C171.194 226.132 169.86 233.775 167.204 237.11C164.547 240.445 155.22 236.612 155.22 236.612C155.22 236.612 151.399 243.102 150.234 245.261C149.07 247.42 151.365 260.399 149.725 266.221C148.086 272.044 144.242 265.724 136.916 256.578C129.59 247.432 126.267 239.936 126.606 237.438C126.945 234.939 132.756 229.117 133.762 226.958C134.768 224.798 135.254 223.792 134.757 221.802C134.259 219.812 128.437 211.627 128.437 201.17C128.437 190.712 136.747 180.707 147.736 179.87C152.278 179.572 156.839 180.046 161.223 181.272Z" stroke="#263238" stroke-width="1.13055" stroke-linecap="round" stroke-linejoin="round"/>
<path d="M163.213 188.858C167.215 186.891 170.053 186.947 171.907 187.501C168.962 184.513 165.274 182.363 161.223 181.272C156.839 180.046 152.278 179.572 147.736 179.87C136.747 180.707 128.437 190.69 128.437 201.17C128.437 211.65 134.26 219.801 134.757 221.802C134.935 222.461 134.978 223.15 134.881 223.826C142.795 225.397 145.384 221.44 145.384 221.44C144.469 221.555 143.539 221.482 142.653 221.226C141.766 220.969 140.941 220.534 140.229 219.948C137.889 217.947 137.889 210.293 140.726 206.8C143.564 203.306 146.379 208.134 146.379 210.96C146.379 213.787 147.713 216.116 149.047 215.788C150.381 215.46 150.042 212.294 150.539 210.293C151.037 208.292 156.859 205.308 158.193 203.646C159.527 201.984 157.526 200.48 155.367 197.993C153.208 195.506 155.05 192.849 163.213 188.858Z" fill="#263238" stroke="#263238" stroke-width="1.13055" stroke-linecap="round" stroke-linejoin="round"/>
<path d="M145.056 221.96C145.056 221.96 145.056 226.63 147.894 229.614" stroke="#263238" stroke-width="1.13055" stroke-linecap="round" stroke-linejoin="round"/>
<path d="M170.968 213.538C169.56 212.942 168.024 212.712 166.503 212.871" stroke="#263238" stroke-width="1.13055" stroke-linecap="round" stroke-linejoin="round"/>
<path d="M173.422 209.525C173.422 209.525 170.968 205.285 166.277 208.631" stroke="#263238" stroke-width="1.13055" stroke-linecap="round" stroke-linejoin="round"/>
<path d="M167.667 228.269C166.647 228.357 165.628 228.096 164.776 227.529C163.924 226.962 163.289 226.123 162.975 225.149" stroke="#263238" stroke-width="1.13055" stroke-linecap="round" stroke-linejoin="round"/>
<path d="M135.39 276.543L133.265 272.021C119.596 272.259 111.592 277.357 107.07 282.196C107.558 283.805 108.17 285.374 108.901 286.888C112.463 282.264 120.094 276.216 135.39 276.543Z" fill="#263238"/>
<path d="M140.127 286.481L138.002 282.026C125.306 282.705 116.77 287.385 111.536 291.681C112.327 292.993 113.175 294.282 114.023 295.537C118.85 291.467 127.25 286.718 140.127 286.481Z" fill="#263238"/>
<path d="M287.291 316.689C288.715 320.951 289.665 336.112 289.665 344.173C289.665 350.888 285.369 399.728 283.944 415.657H348.182C348.951 400.112 351.246 353.398 351.246 347.485C351.246 340.374 348.871 311.24 351.958 301.054C355.044 290.867 358.583 264.107 353.088 255.832C347.594 247.556 327.086 242.808 320.879 240.671C314.672 238.534 305.481 237.359 300.981 239.541C300.981 239.541 288.67 246.414 281.084 253.514C273.498 260.614 270.197 271.524 271.61 280.285C273.023 289.047 285.866 312.427 287.291 316.689Z" fill="white" stroke="#263238" stroke-width="1.13055" stroke-linecap="round" stroke-linejoin="round"/>
<path d="M343.106 248.37C340.337 247.091 337.503 245.959 334.615 244.978C324.158 271.653 307.706 295.566 286.533 314.869C286.883 315.649 287.143 316.282 287.29 316.712C288.003 319.483 288.464 322.314 288.67 325.168C312.858 304.438 331.556 278.059 343.106 248.37Z" fill="#263238"/>
<path d="M355.632 279.223C356.187 273.577 356.081 267.886 355.316 262.265C342.122 284.548 319.308 318.532 289.642 345.134C289.563 347.474 289.269 352.041 288.828 357.83C317.702 333.93 340.539 303.032 355.632 279.223Z" fill="#263238"/>
<path d="M348.182 415.657C348.724 404.589 350.047 377.739 350.759 361.041C319.5 367.021 297.522 361.335 288.794 358.271C287.46 375.873 284.962 404.227 283.944 415.657H348.182Z" fill="#263238" stroke="#263238" stroke-width="1.13055" stroke-linecap="round" stroke-linejoin="round"/>
<path d="M309.076 267.736C317.655 267.736 324.61 261.009 324.61 252.711C324.61 244.413 317.655 237.686 309.076 237.686C300.497 237.686 293.542 244.413 293.542 252.711C293.542 261.009 300.497 267.736 309.076 267.736Z" fill="#92E3A9" stroke="#263238" stroke-width="1.13055" stroke-linecap="round" stroke-linejoin="round"/>
<path d="M294.876 233.786C294.876 233.786 297.477 243.023 297.477 248.483C297.477 253.944 303.401 266.493 313.112 260.806C322.824 255.119 317.849 242.095 316.187 238.059C315.008 234.976 314.059 231.809 313.35 228.585C313.35 228.585 310.263 234.238 304.305 234.51C301.144 234.698 297.972 234.455 294.876 233.786Z" fill="white" stroke="#263238" stroke-width="1.13055" stroke-linecap="round" stroke-linejoin="round"/>
<path d="M278.857 200.254C278.857 200.254 277.217 204.335 279.264 207.602C281.31 210.87 284.114 215.347 284.114 215.347L283.707 197.405C283.707 197.405 279.671 194.138 278.857 200.254Z" fill="#263238" stroke="#263238" stroke-width="1.13055" stroke-linecap="round" stroke-linejoin="round"/>
<path d="M284.114 211.266C284.114 211.266 280.846 212.498 282.474 217.789C284.102 223.08 286.556 221.463 286.556 221.463L284.114 211.266Z" fill="white" stroke="#263238" stroke-width="1.13055" stroke-linecap="round" stroke-linejoin="round"/>
<path d="M281.129 202.052C281.129 202.052 283.978 216.749 285.651 224.075C287.324 231.401 296.312 238.048 301.049 239.473C305.786 240.897 311.948 235.685 313.372 232.61C314.797 229.535 315.498 222.661 315.498 222.661C315.498 222.661 320.709 220.525 321.15 215.075C321.591 209.626 320.201 207.976 317.363 207.263L315.226 206.314C315.226 206.314 316.413 197.552 313.338 192.103C310.263 186.653 299.365 193.765 293.678 195.415C287.991 197.066 280.417 196.602 281.129 202.052Z" fill="white" stroke="#263238" stroke-width="1.13055" stroke-linecap="round" stroke-linejoin="round"/>
<path d="M294.876 212.713C294.876 212.713 293.746 221.237 295.34 221.949C296.934 222.661 300.077 221 300.789 220.762" stroke="#263238" stroke-width="1.13055" stroke-linecap="round" stroke-linejoin="round"/>
<path d="M299.376 227.218C299.376 227.218 306.001 228.167 308.613 220.581" stroke="#263238" stroke-width="1.13055" stroke-linecap="round" stroke-linejoin="round"/>
<path d="M286.816 210.813C287.343 209.996 288.088 209.342 288.967 208.925C289.846 208.508 290.823 208.343 291.79 208.451" stroke="#263238" stroke-width="1.13055" stroke-linecap="round" stroke-linejoin="round"/>
<path d="M298.189 207.263C298.189 207.263 302.926 204.889 305.764 207.501" stroke="#263238" stroke-width="1.13055" stroke-linecap="round" stroke-linejoin="round"/>
<path d="M291.228 216.964C291.874 216.852 292.215 215.714 291.991 214.422C291.766 213.13 291.061 212.174 290.415 212.286C289.769 212.398 289.427 213.536 289.652 214.828C289.876 216.12 290.582 217.076 291.228 216.964Z" fill="#263238"/>
<path d="M301.654 214.837C302.3 214.725 302.641 213.587 302.417 212.295C302.192 211.003 301.487 210.047 300.841 210.159C300.195 210.272 299.853 211.41 300.078 212.702C300.302 213.993 301.008 214.95 301.654 214.837Z" fill="#263238"/>
<path d="M308.138 195.653C301.852 198.603 295.258 200.848 288.478 202.346C278.054 204.471 273.317 202.108 273.78 196.896C274.244 191.684 287.754 180.311 300.066 180.311C312.377 180.311 316.651 185.964 317.363 191.922C317.752 197.047 317.752 202.195 317.363 207.32L315.226 210.395C315.226 210.395 315.769 207.998 312.377 206.076C308.986 204.154 306.476 200.627 308.138 195.653Z" fill="#263238" stroke="#263238" stroke-width="1.13055" stroke-linecap="round" stroke-linejoin="round"/>
<path d="M374.06 212.588C376.378 214.363 373.653 221.78 381.296 227.726C398.887 241.406 409.062 250.665 410.939 270.992C412.996 293.151 401.091 301.766 404.788 309.148C408.485 316.531 413.403 325.146 405.602 331.759C397.802 338.373 385.094 344.071 374.433 328.481C363.772 312.891 358.018 278.431 353.507 259.517C348.996 240.603 341.613 231.627 342.834 223.419C344.033 215.505 350.488 209.852 358.21 208.484C360.992 207.998 363.845 208.113 366.579 208.821C369.313 209.529 371.864 210.813 374.06 212.588Z" fill="#263238" stroke="#263238" stroke-width="1.13055" stroke-linecap="round" stroke-linejoin="round"/>
<path d="M352.874 291.354L319.997 315.4C319.997 315.4 267.348 334.213 264.25 335.174C261.152 336.134 246.387 338.746 243.29 340.408C240.192 342.07 234.245 353.036 233.284 355.659C233.084 356.026 233.008 356.447 233.068 356.86C233.127 357.274 233.319 357.656 233.614 357.952C233.91 358.247 234.293 358.439 234.706 358.498C235.119 358.558 235.541 358.482 235.907 358.282C236.619 357.558 243.527 350.888 245.675 350.651C247.823 350.413 249.722 350.176 249.722 350.176C249.722 350.176 244.239 354.947 244.002 356.371C243.764 357.796 244.963 357.321 246.387 356.609C247.812 355.896 253.295 353.986 255.432 350.176C257.568 346.366 259.479 344.218 263.052 342.793C266.624 341.369 313.248 331.262 321.591 329.837C329.935 328.413 359.951 310.381 361.387 310.143C362.822 309.906 357.407 291.354 352.874 291.354Z" fill="white" stroke="#263238" stroke-width="1.13055" stroke-linecap="round" stroke-linejoin="round"/>
<path d="M346.452 322.104C346.746 322.986 345.864 335.388 345.265 356.948C344.813 373.488 340.89 402.882 339.081 415.657H401.928C402.38 402.701 402.945 373.07 399.305 360.781C394.579 344.84 389.266 341.561 387.502 334.507C385.739 327.452 383.07 288.437 378.639 273.672C374.207 258.907 360.923 250.043 358.854 246.799C356.785 243.554 350.285 224.651 350.285 224.651L339.069 234.103C339.069 234.103 347.334 247.387 348.521 251.524C349.708 255.662 340.539 265.396 335.825 275.447C331.11 285.497 330.172 293.456 334.344 299.652C338.516 305.847 346.158 321.211 346.452 322.104Z" fill="#92E3A9"/>
<mask id="mask4_798_59" style="mask-type:luminance" maskUnits="userSpaceOnUse" x="331" y="224" width="72" height="192">
<path d="M346.452 322.104C346.746 322.986 345.864 335.388 345.265 356.948C344.813 373.488 340.89 402.882 339.081 415.657H401.928C402.38 402.701 402.945 373.07 399.305 360.781C394.579 344.84 389.266 341.561 387.502 334.507C385.739 327.452 383.07 288.437 378.639 273.672C374.207 258.907 360.923 250.043 358.854 246.799C356.785 243.554 350.285 224.651 350.285 224.651L339.069 234.103C339.069 234.103 347.334 247.387 348.521 251.524C349.708 255.662 340.539 265.396 335.825 275.447C331.11 285.497 330.172 293.456 334.344 299.652C338.516 305.847 346.158 321.211 346.452 322.104Z" fill="white"/>
</mask>
<g mask="url(#mask4_798_59)">
<path d="M356.062 382.781L366.361 385.042L376.66 382.781L386.96 385.042L397.259 382.781L402.03 383.821L401.928 381.492L397.259 380.463L386.96 382.724L376.66 380.463L366.361 382.724L356.062 380.463L345.774 382.724L343.298 382.182C343.219 382.939 343.14 383.685 343.049 384.443L345.774 385.042L356.062 382.781Z" fill="white"/>
<path d="M367.435 305.406L357.136 307.667L346.837 305.406L338.787 307.17L339.918 309.239L346.848 307.724L357.147 309.985L367.446 307.724L377.746 309.985L384.258 308.549C384.167 307.803 384.088 307.046 383.998 306.288L377.746 307.667L367.435 305.406Z" fill="white"/>
<path d="M356.062 399.999L366.361 402.26L376.66 399.999L386.96 402.26L397.259 399.999L402.245 401.13C402.245 400.372 402.245 399.604 402.245 398.869L397.248 397.738L386.948 399.999L376.649 397.738L366.35 399.999L356.05 397.738L345.762 399.999L341.308 399.016C341.218 399.784 341.116 400.531 341.025 401.277L345.762 402.317L356.062 399.999Z" fill="white"/>
<path d="M402.154 407.382L397.259 406.308L386.96 408.569L376.66 406.308L366.361 408.569L356.062 406.308L345.774 408.569L340.223 407.348C340.121 408.116 340.019 408.874 339.929 409.609L345.774 410.886L356.062 408.625L366.361 410.886L376.66 408.625L386.96 410.886L397.259 408.625L402.109 409.699C402.12 408.942 402.143 408.173 402.154 407.382Z" fill="white"/>
<path d="M332.806 283.327L336.537 284.141L346.836 281.88L357.136 284.141L367.435 281.88L377.734 284.141L380.821 283.462C380.685 282.705 380.549 281.959 380.414 281.201L377.734 281.789L367.435 279.528L357.136 281.789L346.836 279.528L336.537 281.789L333.485 281.122C333.236 281.883 333.01 282.618 332.806 283.327Z" fill="white"/>
<path d="M367.435 288.177L357.136 290.438L346.836 288.177L336.537 290.438L331.744 289.386C331.698 290.158 331.698 290.932 331.744 291.704L336.537 292.755L346.836 290.494L357.136 292.755L367.435 290.494L377.734 292.755L382.143 291.783C382.03 291.026 381.929 290.28 381.816 289.522L377.734 290.415L367.435 288.177Z" fill="white"/>
<path d="M367.435 296.792L357.136 299.053L346.836 296.792L336.537 299.053L333.598 298.408C333.824 298.826 334.072 299.245 334.344 299.652C334.615 300.059 334.943 300.568 335.26 301.088L336.537 301.37L346.836 299.109L357.136 301.37L367.435 299.109L377.734 301.37L383.251 300.161C383.161 299.403 383.059 298.657 382.969 297.899L377.734 299.03L367.435 296.792Z" fill="white"/>
<path d="M356.062 391.396L366.361 393.657L376.66 391.396L386.96 393.657L397.259 391.396L402.233 392.526V390.209L397.293 389.078L386.993 391.339L376.694 389.078L366.395 391.339L356.096 389.078L345.808 391.339L342.416 390.582L342.145 392.843L345.842 393.657L356.062 391.396Z" fill="white"/>
</g>
<path d="M346.452 322.104C346.746 322.986 345.864 335.388 345.265 356.948C344.813 373.488 340.89 402.882 339.081 415.657H401.928C402.38 402.701 402.945 373.07 399.305 360.781C394.579 344.84 389.266 341.561 387.502 334.507C385.739 327.452 383.07 288.437 378.639 273.672C374.207 258.907 360.923 250.043 358.854 246.799C356.785 243.554 350.285 224.651 350.285 224.651L339.069 234.103C339.069 234.103 347.334 247.387 348.521 251.524C349.708 255.662 340.539 265.396 335.825 275.447C331.11 285.497 330.172 293.456 334.344 299.652C338.516 305.847 346.158 321.211 346.452 322.104Z" stroke="#263238" stroke-width="1.13055" stroke-linecap="round" stroke-linejoin="round"/>
<path d="M339.058 303.032C339.058 303.032 342.857 310.641 355.542 307.679" stroke="#263238" stroke-width="1.13055" stroke-linecap="round" stroke-linejoin="round"/>
<path d="M373.71 352.053C373.71 352.053 354.694 375.297 346.237 393.883" stroke="#263238" stroke-width="1.13055" stroke-linecap="round" stroke-linejoin="round"/>
<path d="M353.428 371.08C353.428 371.08 345.389 385.867 343.253 395.16" stroke="#263238" stroke-width="1.13055" stroke-linecap="round" stroke-linejoin="round"/>
<path d="M342.687 273.152C348.826 269.76 356.661 255.063 360.075 252.35L362.404 250.484C361.103 249.375 359.914 248.14 358.854 246.799C356.785 243.554 350.285 224.651 350.285 224.651L339.07 234.103C339.07 234.103 347.334 247.387 348.521 251.524C349.561 255.176 342.54 263.214 337.634 271.953C338.21 273.57 339.567 274.881 342.687 273.152Z" fill="white" stroke="#263238" stroke-width="1.13055" stroke-linecap="round" stroke-linejoin="round"/>
<path d="M329.166 201.916C327.857 205.02 327.202 208.361 327.244 211.729C327.448 214.714 328.092 217.077 326.894 220.027C326.193 221.723 323.819 223.882 324.146 225.838C324.44 227.602 328.872 228.201 328.872 228.201C328.872 228.201 333.304 242.073 335.655 242.367C338.007 242.661 343.332 241.236 350.115 235.584C356.898 229.931 348.645 209.581 342.733 204.279C336.82 198.977 332.117 198.366 329.166 201.916Z" fill="white" stroke="#263238" stroke-width="1.13055" stroke-linecap="round" stroke-linejoin="round"/>
<path d="M331.178 220.423C331.603 220.423 331.947 219.451 331.947 218.252C331.947 217.054 331.603 216.082 331.178 216.082C330.754 216.082 330.41 217.054 330.41 218.252C330.41 219.451 330.754 220.423 331.178 220.423Z" fill="#263238"/>
<path d="M329.132 213.267C329.132 213.267 329.901 210.192 332.976 212.498" stroke="#263238" stroke-width="1.13055" stroke-linecap="round" stroke-linejoin="round"/>
<path d="M330.67 231.174C330.67 231.174 332.716 231.694 335.022 228.913" stroke="#263238" stroke-width="1.13055" stroke-linecap="round" stroke-linejoin="round"/>
<path d="M335.667 186.258C335.667 186.258 324.734 186.563 322.959 193.64C321.184 200.718 329.166 206.936 334.773 209.886C340.381 212.837 345.401 217.563 345.401 222.582C345.401 227.602 345.706 233.515 349.832 238.828C353.959 244.142 363.399 248.574 370.804 248.28C378.209 247.986 370.216 230.609 374.343 218.173C378.469 205.737 373.212 193.369 364.891 188.055C356.57 182.742 335.667 186.258 335.667 186.258Z" fill="#263238" stroke="#263238" stroke-width="1.13055" stroke-linecap="round" stroke-linejoin="round"/>
<path d="M402.414 293.479C402.315 295.028 402.073 296.565 401.691 298.069" stroke="white" stroke-width="1.13055" stroke-linecap="round" stroke-linejoin="round"/>
<path d="M333.157 204.607C335.192 207.998 339.047 211.616 346.294 213.651C362.121 218.173 368.147 229.106 368.147 238.523C368.147 247.94 368.905 254.724 383.975 262.264C388.418 264.486 392.312 267.667 395.375 271.578C398.439 275.488 400.596 280.03 401.691 284.875" stroke="white" stroke-width="1.13055" stroke-linecap="round" stroke-linejoin="round"/>
<path d="M330.839 197.066C330.842 197.722 330.906 198.377 331.031 199.022" stroke="white" stroke-width="1.13055" stroke-linecap="round" stroke-linejoin="round"/>
<path d="M351.946 197.066C351.946 197.066 370.793 206.495 370.408 219.304C370.024 232.113 371.166 244.176 382.844 251.332C394.523 258.488 406.586 263.022 410.735 277.335" stroke="white" stroke-width="1.13055" stroke-linecap="round" stroke-linejoin="round"/>
<path d="M362.461 265.656C362.461 265.656 357.452 267.555 354.841 277.323C352.229 287.091 362.935 304.242 364.609 311.873C366.282 319.504 367.944 331.16 367.944 331.16C367.944 331.16 330.534 361.685 325.062 366.422C319.59 371.159 316.719 374.279 316.719 374.279C316.719 374.279 303.152 386.195 301.954 388.581C300.755 390.966 297.431 403.346 298.618 403.82C299.806 404.295 301.954 399.061 301.954 398.111C301.954 397.161 304.328 391.916 304.328 391.916C304.328 391.916 302.428 404.035 302.428 404.714C302.428 405.392 304.328 404.714 304.565 403.753C304.803 402.792 307.425 392.798 307.425 392.798C307.425 392.798 306.001 403.99 306.951 405.234C307.9 406.477 309.573 398.089 309.573 398.089L311.473 391.418C311.473 391.418 310.998 403.086 311.959 403.56C312.92 404.035 315.057 392.131 315.057 392.131C315.057 392.131 319.341 383.55 321.003 380.689C321.951 379.133 322.674 377.451 323.151 375.692C323.151 375.692 345.31 363.539 359.125 356.869C372.941 350.199 384.619 337.808 386.044 335.671C387.468 333.534 384.371 303.507 381.996 290.641C379.622 277.776 374.614 262.265 362.461 265.656Z" fill="white" stroke="#263238" stroke-width="1.13055" stroke-linecap="round" stroke-linejoin="round"/>
<path d="M285.063 250.303C285.063 250.303 276.539 256.103 269.722 261.609C262.904 267.115 263.922 277.979 263.922 280.365C263.922 282.75 263.583 293.66 263.583 293.66L258.461 304.57C258.461 304.57 250.627 311.737 248.92 313.444C247.212 315.152 237.332 334.574 237.332 334.574L234.946 337.966L247.936 339.639C252.786 334.231 258.151 329.309 263.956 324.942C272.446 318.792 279.591 301.834 279.942 299.742C281.383 294.029 282.399 288.217 282.983 282.354" fill="white"/>
<path d="M285.063 250.303C285.063 250.303 276.539 256.103 269.722 261.609C262.904 267.115 263.922 277.979 263.922 280.365C263.922 282.75 263.583 293.66 263.583 293.66L258.461 304.57C258.461 304.57 250.627 311.737 248.92 313.444C247.212 315.152 237.332 334.574 237.332 334.574L234.946 337.966L247.936 339.639C252.786 334.231 258.151 329.309 263.956 324.942C272.446 318.792 279.591 301.834 279.942 299.742C281.383 294.029 282.399 288.217 282.983 282.354" stroke="#263238" stroke-width="1.13055" stroke-linecap="round" stroke-linejoin="round"/>
<path d="M280.722 296.102C274.99 286.696 267.155 287.917 263.673 289.093C263.594 291.58 263.538 293.615 263.538 293.615L258.416 304.525C258.416 304.525 250.582 311.692 248.874 313.399C247.167 315.106 237.286 334.529 237.286 334.529L234.901 337.921L247.936 339.639C252.786 334.231 258.151 329.309 263.956 324.942C272.446 318.792 279.591 301.834 279.942 299.742C280.066 299.053 280.383 297.786 280.722 296.102Z" fill="white" stroke="#263238" stroke-width="1.13055" stroke-linecap="round" stroke-linejoin="round"/>
<path d="M242.193 330.097C242.193 330.097 233.725 337.016 232.018 339.21C230.311 341.403 228.977 354.302 229.655 355.241C230.333 356.179 235.07 358.7 237.105 356.496C239.14 354.291 246.591 343.664 246.591 343.664C246.591 343.664 240.938 351.306 244.974 350.877C249.01 350.447 251.328 344.229 253.702 341.403C256.076 338.577 255.737 338.26 253.702 334.179L251.678 330.097" fill="white"/>
<path d="M242.193 330.097C242.193 330.097 233.725 337.016 232.018 339.21C230.311 341.403 228.977 354.302 229.655 355.241C230.333 356.179 235.07 358.7 237.105 356.496C239.14 354.291 246.591 343.664 246.591 343.664C246.591 343.664 240.938 351.306 244.974 350.877C249.01 350.447 251.328 344.229 253.702 341.403C256.076 338.577 255.737 338.26 253.702 334.179L251.678 330.097" stroke="#263238" stroke-width="1.13055" stroke-linecap="round" stroke-linejoin="round"/>
<path d="M229.666 355.23C229.666 355.23 233.974 340.532 235.692 339.402" stroke="#263238" stroke-width="1.13055" stroke-linecap="round" stroke-linejoin="round"/>
<path d="M231.69 356.303C231.69 356.303 236.687 342.488 239.265 339.628" stroke="#263238" stroke-width="1.13055" stroke-linecap="round" stroke-linejoin="round"/>
<path d="M234.37 357.287C234.37 357.287 239.785 343.721 243.335 340.431" stroke="#263238" stroke-width="1.13055" stroke-linecap="round" stroke-linejoin="round"/>
<path d="M246.591 343.664C246.591 343.664 249.474 341.109 249.915 339.571Z" fill="white"/>
<path d="M246.591 343.664C246.591 343.664 249.474 341.109 249.915 339.571" stroke="#263238" stroke-width="1.13055" stroke-linecap="round" stroke-linejoin="round"/>
<path d="M37.9481 415.657H461.044" stroke="#263238" stroke-width="1.13055" stroke-linecap="round" stroke-linejoin="round"/>
</svg>
