<svg width="500" height="500" viewBox="0 0 500 500" fill="none" xmlns="http://www.w3.org/2000/svg">
<path d="M451.94 289.78C453.247 283.271 455.391 276.958 458.32 271C466.32 254.62 472.07 240.29 466.98 222C454.51 177.33 403.79 172.11 378.77 138.42C340.09 86.36 245.05 81.84 199.65 126.83C185.73 140.62 179.21 160.1 165.14 173.74C144.41 193.85 113.63 196.44 92.34 216.49C57.63 249.2 54.26 304.63 85.07 341.41C117.61 380.25 163.54 373.88 208.15 365.62C230.1 361.56 252.92 357.16 275.29 360.28C323 367 379.61 393.21 425.85 367.12C450.48 353.22 451.11 331.54 450.54 306.25C450.401 300.725 450.87 295.202 451.94 289.78Z" fill="#92E3A9"/>
<path opacity="0.6" d="M451.94 289.78C453.247 283.271 455.391 276.958 458.32 271C466.32 254.62 472.07 240.29 466.98 222C454.51 177.33 403.79 172.11 378.77 138.42C340.09 86.36 245.05 81.84 199.65 126.83C185.73 140.62 179.21 160.1 165.14 173.74C144.41 193.85 113.63 196.44 92.34 216.49C57.63 249.2 54.26 304.63 85.07 341.41C117.61 380.25 163.54 373.88 208.15 365.62C230.1 361.56 252.92 357.16 275.29 360.28C323 367 379.61 393.21 425.85 367.12C450.48 353.22 451.11 331.54 450.54 306.25C450.401 300.725 450.87 295.202 451.94 289.78Z" fill="white"/>
<path d="M257.5 426C363.263 426 449 407.868 449 385.5C449 363.132 363.263 345 257.5 345C151.737 345 66 363.132 66 385.5C66 407.868 151.737 426 257.5 426Z" fill="#92E3A9"/>
<path opacity="0.3" d="M257.5 426C363.263 426 449 407.868 449 385.5C449 363.132 363.263 345 257.5 345C151.737 345 66 363.132 66 385.5C66 407.868 151.737 426 257.5 426Z" fill="white"/>
<path d="M39.05 114.14C38.8167 113.296 38.7636 112.413 38.894 111.547C39.0244 110.682 39.3355 109.853 39.8071 109.116C40.2787 108.378 40.9001 107.748 41.6311 107.266C42.3621 106.785 43.1863 106.462 44.05 106.32C49.28 105.61 55.7 112.63 57.74 116.88C57.91 117.25 60 123.31 59.9 123.31C59.8 123.31 50.63 123.52 46.9 121.86C43.63 120.45 39.92 117.76 39.05 114.14ZM173.37 97.9999C172.6 101.64 168.96 104.43 165.78 105.93C162.6 107.43 155.05 107.69 153.2 107.72C152.2 108.91 151.13 110.2 149.98 111.64C147.98 114.2 145.76 117.11 143.56 120.43C142.97 121.32 142.37 122.29 141.77 123.23C143.11 121.86 144.96 120.01 145.16 119.85C148.85 116.92 157.69 113.41 162.08 116.33C162.796 116.834 163.399 117.483 163.848 118.235C164.297 118.987 164.582 119.825 164.686 120.695C164.79 121.564 164.709 122.446 164.45 123.283C164.19 124.119 163.758 124.892 163.18 125.55C160.81 128.43 156.3 129.23 152.78 129.09C149.26 128.95 142.23 125.6 140.73 124.85C139.44 126.94 138.16 129.12 136.96 131.47C134.726 135.706 132.875 140.134 131.43 144.7L131.7 144.83C132.77 143.42 135.1 140.51 135.32 140.3C138.66 136.97 147.07 132.52 151.76 134.93C152.519 135.355 153.18 135.934 153.702 136.629C154.225 137.325 154.596 138.121 154.793 138.968C154.989 139.815 155.007 140.694 154.845 141.549C154.682 142.403 154.344 143.214 153.85 143.93C151.85 147.06 147.42 148.35 143.91 148.59C139.91 148.88 131.5 145.72 131.18 145.59C129.882 150.164 128.88 154.817 128.18 159.52C127.64 163 127.23 166.52 126.85 170.11C127.58 169.11 130.64 165.28 130.85 165.03C134.19 161.71 142.6 157.25 147.28 159.67C148.048 160.093 148.718 160.672 149.247 161.371C149.776 162.07 150.152 162.872 150.35 163.726C150.548 164.58 150.564 165.466 150.397 166.326C150.23 167.187 149.883 168.002 149.38 168.72C147.38 171.84 142.95 173.13 139.44 173.37C135.49 173.65 127.44 170.66 126.78 170.37C126.61 171.99 126.44 173.6 126.28 175.23C125.76 180.52 125.28 185.84 124.62 191.07C124.39 192.88 124.11 194.66 123.83 196.44C124.97 194.96 127.09 192.31 127.3 192.1C130.64 188.78 139.05 184.32 143.74 186.74C144.5 187.164 145.162 187.742 145.686 188.437C146.209 189.133 146.58 189.93 146.777 190.777C146.974 191.625 146.992 192.504 146.828 193.359C146.665 194.213 146.325 195.025 145.83 195.74C143.83 198.86 139.4 200.15 135.89 200.4C132.38 200.65 125.56 198.28 123.65 197.58C123.16 200.58 122.65 203.47 121.93 206.32C121.61 207.55 121.37 208.82 120.99 209.98L119.99 213.47C119.19 215.83 118.46 218.02 117.66 220.2C117.26 221.3 116.87 222.33 116.47 223.4C117.4 221.72 118.92 219.1 119.08 218.87C121.88 215.08 129.51 209.41 134.51 211.09C135.333 211.39 136.084 211.86 136.713 212.47C137.343 213.08 137.836 213.815 138.162 214.629C138.487 215.442 138.638 216.315 138.603 217.191C138.568 218.066 138.349 218.925 137.96 219.71C136.42 223.11 132.27 225.05 128.83 225.82C125.05 226.68 116.93 225.03 115.94 224.82C114.94 227.43 113.94 229.95 113 232.3C110 239.73 107.15 245.81 105.12 250.04L104.79 250.72H119.58L114.47 350.32C114.33 354.002 112.766 357.486 110.108 360.038C107.45 362.59 103.905 364.01 100.22 364C96.5709 364.002 93.0603 362.602 90.4138 360.09C87.7673 357.577 86.1872 354.144 86 350.5L80.89 250.9H96.77C96.69 250.21 96.61 249.48 96.52 248.66C95.99 244.06 95.13 237.48 93.75 229.66C93.36 227.4 92.91 225.01 92.41 222.56C91.41 222.69 83.19 223.73 79.48 222.56C76.12 221.56 72.12 219.28 70.84 215.78C70.5119 214.968 70.3585 214.096 70.3895 213.221C70.4206 212.346 70.6356 211.487 71.0204 210.7C71.4052 209.914 71.9513 209.217 72.6232 208.655C73.2951 208.093 74.0776 207.679 74.92 207.44C80.03 206.13 87.22 212.37 89.73 216.35C89.89 216.61 91.44 219.84 92.2 221.51C91.9 220.03 91.61 218.56 91.27 217.02C90.79 214.81 90.27 212.49 89.68 210.23C89.36 209.07 89.03 207.9 88.68 206.72C88.33 205.54 87.93 204.42 87.56 203.24C86.98 201.54 86.29 199.81 85.56 198.08C83.34 198.7 76.78 200.39 73.41 199.9C70.04 199.41 65.63 197.78 63.84 194.52C63.3913 193.767 63.1064 192.927 63.0039 192.057C62.9013 191.186 62.9833 190.303 63.2447 189.467C63.506 188.63 63.9408 187.857 64.5207 187.2C65.1005 186.542 65.8124 186.014 66.61 185.65C71.46 183.58 79.51 188.65 82.61 192.22C82.71 192.33 83.29 193.15 83.96 194.13C83.24 192.47 82.53 190.8 81.75 189.13C79.53 184.41 77.12 179.66 74.75 174.9C74.25 173.9 73.75 172.9 73.27 171.9C71.4 172.43 64.27 174.33 60.78 173.82C57.29 173.31 53 171.7 51.21 168.43C50.7688 167.677 50.4905 166.84 50.393 165.973C50.2954 165.105 50.3809 164.227 50.6438 163.395C50.9067 162.563 51.3413 161.795 51.9194 161.142C52.4975 160.488 53.2063 159.963 54 159.6C58.85 157.54 66.9 162.6 70 166.18C70.11 166.3 70.8 167.28 71.55 168.39C70.29 165.78 69.06 163.17 67.92 160.53C65.9513 156.025 64.281 151.395 62.92 146.67C62.27 146.86 54 149.26 50.07 148.67C46.59 148.17 42.3 146.55 40.51 143.29C40.061 142.537 39.7756 141.699 39.6723 140.828C39.5691 139.958 39.6503 139.076 39.9106 138.239C40.171 137.402 40.6047 136.63 41.1835 135.972C41.7624 135.314 42.4733 134.785 43.27 134.42C48.13 132.36 56.18 137.42 59.27 140.99C59.49 141.25 61.93 144.81 62.76 146.12C62.7556 146.063 62.7556 146.007 62.76 145.95C61.5369 141.274 60.7337 136.499 60.36 131.68C59.9924 127.38 59.8722 123.063 60 118.75C60.1 114.75 60.43 111.09 60.75 107.86C60.94 106.11 61.14 104.51 61.35 103.02L61.26 103.08C61.17 103.14 59.41 96.9799 59.34 96.5799C58.56 91.9299 59.8 82.4999 64.48 80.0699C65.2698 79.6893 66.1309 79.4791 67.0072 79.453C67.8836 79.4268 68.7557 79.5854 69.5667 79.9183C70.3778 80.2512 71.1098 80.7511 71.7151 81.3854C72.3203 82.0196 72.7854 82.7742 73.08 83.5999C74.44 87.0699 72.94 91.3999 71.08 94.4099C69.22 97.4199 63.08 101.79 61.58 102.84C61.4 104.39 61.22 106.05 61.06 107.84C60.81 111.07 60.56 114.72 60.55 118.71C60.55 119.78 60.55 120.92 60.6 122.03C60.96 120.15 61.49 117.59 61.6 117.34C63.05 112.86 68.49 105.06 73.77 105.07C74.6458 105.095 75.5065 105.305 76.2959 105.685C77.0853 106.065 77.7858 106.607 78.3518 107.276C78.9178 107.945 79.3366 108.726 79.581 109.567C79.8253 110.409 79.8897 111.292 79.77 112.16C79.39 115.87 76.06 119.02 73.05 120.85C70.04 122.68 62.29 123.81 60.63 124C60.71 126.46 60.84 129 61.14 131.6C61.6143 136.363 62.5112 141.075 63.82 145.68H64.12C64.24 143.91 64.58 140.2 64.64 139.89C65.64 135.28 70.14 126.89 75.39 126.36C76.2633 126.289 77.1417 126.404 77.9679 126.695C78.7941 126.986 79.5497 127.449 80.1855 128.051C80.8213 128.654 81.3231 129.384 81.6581 130.194C81.9931 131.003 82.1539 131.874 82.13 132.75C82.13 136.47 79.2 139.98 76.41 142.12C73.19 144.59 64.47 146.57 64.14 146.64C65.5645 151.181 67.2848 155.624 69.29 159.94C70.76 163.14 72.37 166.33 74.02 169.51C74.08 168.26 74.52 163.39 74.59 163.04C75.59 158.43 80.09 150.04 85.34 149.5C86.213 149.431 87.0906 149.546 87.9162 149.838C88.7417 150.13 89.4967 150.592 90.1321 151.195C90.7676 151.797 91.2694 152.527 91.6049 153.335C91.9405 154.144 92.1024 155.015 92.08 155.89C92.08 159.62 89.14 163.12 86.35 165.26C83.21 167.67 74.87 169.61 74.16 169.77C74.91 171.21 75.66 172.66 76.42 174.1C78.91 178.81 81.42 183.51 83.78 188.23C84.59 189.87 85.33 191.51 86.08 193.15C86.21 191.28 86.53 187.9 86.58 187.61C87.58 183 92.09 174.61 97.33 174.07C98.2033 173.999 99.0816 174.114 99.9079 174.405C100.734 174.696 101.49 175.159 102.126 175.761C102.761 176.364 103.263 177.094 103.598 177.904C103.933 178.713 104.094 179.584 104.07 180.46C104.07 184.19 101.14 187.69 98.35 189.83C95.56 191.97 88.56 193.76 86.59 194.24C87.82 197 89 199.7 90 202.46C90.41 203.66 90.9 204.85 91.23 206.02L92.29 209.51C92.92 211.92 93.52 214.15 94.06 216.41C94.34 217.55 94.57 218.63 94.83 219.73C94.68 217.83 94.5 214.8 94.51 214.52C94.76 209.82 97.99 200.87 103.09 199.52C103.943 199.318 104.829 199.298 105.69 199.461C106.551 199.624 107.368 199.967 108.088 200.467C108.808 200.967 109.414 201.613 109.868 202.363C110.321 203.113 110.612 203.95 110.72 204.82C110.79 205.276 110.821 205.738 110.81 206.2C112.863 209.796 113.962 213.859 114 218C114 218.3 113.51 221.85 113.22 223.66C113.79 222.26 114.35 220.87 114.91 219.41C115.74 217.3 116.54 215.05 117.34 212.87L118.46 209.4C118.86 208.23 119.1 207.07 119.46 205.88C119.92 204.14 120.3 202.31 120.68 200.5C118.49 199.78 112.08 197.58 109.54 195.31C107 193.04 104.23 189.25 104.54 185.54C104.583 184.665 104.809 183.809 105.204 183.027C105.599 182.246 106.154 181.556 106.833 181.002C107.512 180.449 108.3 180.044 109.145 179.814C109.99 179.585 110.874 179.536 111.74 179.67C116.93 180.67 120.85 189.3 121.45 193.97C121.45 194.12 121.5 195.12 121.52 196.31C121.84 194.53 122.17 192.74 122.43 190.92C123.19 185.76 123.79 180.47 124.43 175.18C124.56 174.07 124.71 172.97 124.84 171.87C122.99 171.28 116.03 168.96 113.37 166.58C110.71 164.2 108.06 160.52 108.37 156.81C108.41 155.934 108.634 155.076 109.028 154.293C109.422 153.51 109.977 152.818 110.657 152.264C111.337 151.71 112.125 151.306 112.972 151.078C113.819 150.849 114.704 150.803 115.57 150.94C120.76 151.94 124.67 160.57 125.28 165.24C125.28 165.4 125.28 166.6 125.35 167.94C125.73 165.06 126.15 162.21 126.66 159.38C127.49 154.514 128.649 149.709 130.13 145C129.47 144.8 121.26 142.24 118.3 139.6C115.67 137.25 112.98 133.54 113.3 129.83C113.34 128.954 113.564 128.096 113.958 127.313C114.352 126.53 114.907 125.838 115.587 125.284C116.267 124.73 117.055 124.326 117.902 124.098C118.749 123.869 119.634 123.823 120.5 123.96C125.68 124.96 129.6 133.59 130.21 138.26C130.21 138.59 130.32 142.91 130.29 144.46C130.29 144.4 130.29 144.34 130.34 144.29C131.902 139.715 133.867 135.288 136.21 131.06C138.291 127.264 140.588 123.592 143.09 120.06C145.38 116.77 147.67 113.91 149.73 111.39C150.85 110.03 151.9 108.81 152.89 107.68H152.78C152.68 107.68 154.61 101.56 154.78 101.19C156.7 96.8899 162.93 89.6999 168.17 90.2599C169.043 90.3789 169.88 90.6812 170.628 91.1471C171.375 91.613 172.016 92.2318 172.507 92.963C172.998 93.6941 173.329 94.5209 173.478 95.3891C173.627 96.2572 173.59 97.147 173.37 97.9999ZM112.88 224.6C111.98 224.17 105.07 220.75 102.37 217.82C100.033 219.093 97.6221 220.225 95.15 221.21C95.76 223.93 96.34 226.58 96.83 229.07C98.39 236.95 99.4 243.57 100.04 248.22C100.17 249.22 100.29 250.09 100.39 250.9H100.74L101.9 248.65C103.99 244.52 106.9 238.56 110.08 231.26C111 229.16 111.94 226.92 112.88 224.6ZM140.52 123.9C140.6 123.9 142.2 117.75 142.26 117.34C142.91 112.68 141.42 103.28 136.67 100.98C135.87 100.621 135.003 100.435 134.126 100.433C133.249 100.431 132.381 100.614 131.58 100.97C130.778 101.325 130.06 101.846 129.472 102.497C128.885 103.148 128.441 103.916 128.17 104.75C126.9 108.25 128.52 112.54 130.43 115.49C132.67 119 140.51 123.9 140.52 123.9Z" fill="#92E3A9"/>
<path opacity="0.3" d="M39.05 114.14C38.8167 113.296 38.7636 112.413 38.894 111.547C39.0244 110.682 39.3355 109.853 39.8071 109.116C40.2787 108.378 40.9001 107.748 41.6311 107.266C42.3621 106.785 43.1863 106.462 44.05 106.32C49.28 105.61 55.7 112.63 57.74 116.88C57.91 117.25 60 123.31 59.9 123.31C59.8 123.31 50.63 123.52 46.9 121.86C43.63 120.45 39.92 117.76 39.05 114.14ZM173.37 97.9999C172.6 101.64 168.96 104.43 165.78 105.93C162.6 107.43 155.05 107.69 153.2 107.72C152.2 108.91 151.13 110.2 149.98 111.64C147.98 114.2 145.76 117.11 143.56 120.43C142.97 121.32 142.37 122.29 141.77 123.23C143.11 121.86 144.96 120.01 145.16 119.85C148.85 116.92 157.69 113.41 162.08 116.33C162.796 116.834 163.399 117.483 163.848 118.235C164.297 118.987 164.582 119.825 164.686 120.695C164.79 121.564 164.709 122.446 164.45 123.283C164.19 124.119 163.758 124.892 163.18 125.55C160.81 128.43 156.3 129.23 152.78 129.09C149.26 128.95 142.23 125.6 140.73 124.85C139.44 126.94 138.16 129.12 136.96 131.47C134.726 135.706 132.875 140.134 131.43 144.7L131.7 144.83C132.77 143.42 135.1 140.51 135.32 140.3C138.66 136.97 147.07 132.52 151.76 134.93C152.519 135.355 153.18 135.934 153.702 136.629C154.225 137.325 154.596 138.121 154.793 138.968C154.989 139.815 155.007 140.694 154.845 141.549C154.682 142.403 154.344 143.214 153.85 143.93C151.85 147.06 147.42 148.35 143.91 148.59C139.91 148.88 131.5 145.72 131.18 145.59C129.882 150.164 128.88 154.817 128.18 159.52C127.64 163 127.23 166.52 126.85 170.11C127.58 169.11 130.64 165.28 130.85 165.03C134.19 161.71 142.6 157.25 147.28 159.67C148.048 160.093 148.718 160.672 149.247 161.371C149.776 162.07 150.152 162.872 150.35 163.726C150.548 164.58 150.564 165.466 150.397 166.326C150.23 167.187 149.883 168.002 149.38 168.72C147.38 171.84 142.95 173.13 139.44 173.37C135.49 173.65 127.44 170.66 126.78 170.37C126.61 171.99 126.44 173.6 126.28 175.23C125.76 180.52 125.28 185.84 124.62 191.07C124.39 192.88 124.11 194.66 123.83 196.44C124.97 194.96 127.09 192.31 127.3 192.1C130.64 188.78 139.05 184.32 143.74 186.74C144.5 187.164 145.162 187.742 145.686 188.437C146.209 189.133 146.58 189.93 146.777 190.777C146.974 191.625 146.992 192.504 146.828 193.359C146.665 194.213 146.325 195.025 145.83 195.74C143.83 198.86 139.4 200.15 135.89 200.4C132.38 200.65 125.56 198.28 123.65 197.58C123.16 200.58 122.65 203.47 121.93 206.32C121.61 207.55 121.37 208.82 120.99 209.98L119.99 213.47C119.19 215.83 118.46 218.02 117.66 220.2C117.26 221.3 116.87 222.33 116.47 223.4C117.4 221.72 118.92 219.1 119.08 218.87C121.88 215.08 129.51 209.41 134.51 211.09C135.333 211.39 136.084 211.86 136.713 212.47C137.343 213.08 137.836 213.815 138.162 214.629C138.487 215.442 138.638 216.315 138.603 217.191C138.568 218.066 138.349 218.925 137.96 219.71C136.42 223.11 132.27 225.05 128.83 225.82C125.05 226.68 116.93 225.03 115.94 224.82C114.94 227.43 113.94 229.95 113 232.3C110 239.73 107.15 245.81 105.12 250.04L104.79 250.72H119.58L114.47 350.32C114.33 354.002 112.766 357.486 110.108 360.038C107.45 362.59 103.905 364.01 100.22 364C96.5709 364.002 93.0603 362.602 90.4138 360.09C87.7673 357.577 86.1872 354.144 86 350.5L80.89 250.9H96.77C96.69 250.21 96.61 249.48 96.52 248.66C95.99 244.06 95.13 237.48 93.75 229.66C93.36 227.4 92.91 225.01 92.41 222.56C91.41 222.69 83.19 223.73 79.48 222.56C76.12 221.56 72.12 219.28 70.84 215.78C70.5119 214.968 70.3585 214.096 70.3895 213.221C70.4206 212.346 70.6356 211.487 71.0204 210.7C71.4052 209.914 71.9513 209.217 72.6232 208.655C73.2951 208.093 74.0776 207.679 74.92 207.44C80.03 206.13 87.22 212.37 89.73 216.35C89.89 216.61 91.44 219.84 92.2 221.51C91.9 220.03 91.61 218.56 91.27 217.02C90.79 214.81 90.27 212.49 89.68 210.23C89.36 209.07 89.03 207.9 88.68 206.72C88.33 205.54 87.93 204.42 87.56 203.24C86.98 201.54 86.29 199.81 85.56 198.08C83.34 198.7 76.78 200.39 73.41 199.9C70.04 199.41 65.63 197.78 63.84 194.52C63.3913 193.767 63.1064 192.927 63.0039 192.057C62.9013 191.186 62.9833 190.303 63.2447 189.467C63.506 188.63 63.9408 187.857 64.5207 187.2C65.1005 186.542 65.8124 186.014 66.61 185.65C71.46 183.58 79.51 188.65 82.61 192.22C82.71 192.33 83.29 193.15 83.96 194.13C83.24 192.47 82.53 190.8 81.75 189.13C79.53 184.41 77.12 179.66 74.75 174.9C74.25 173.9 73.75 172.9 73.27 171.9C71.4 172.43 64.27 174.33 60.78 173.82C57.29 173.31 53 171.7 51.21 168.43C50.7688 167.677 50.4905 166.84 50.393 165.973C50.2954 165.105 50.3809 164.227 50.6438 163.395C50.9067 162.563 51.3413 161.795 51.9194 161.142C52.4975 160.488 53.2063 159.963 54 159.6C58.85 157.54 66.9 162.6 70 166.18C70.11 166.3 70.8 167.28 71.55 168.39C70.29 165.78 69.06 163.17 67.92 160.53C65.9513 156.025 64.281 151.395 62.92 146.67C62.27 146.86 54 149.26 50.07 148.67C46.59 148.17 42.3 146.55 40.51 143.29C40.061 142.537 39.7756 141.699 39.6723 140.828C39.5691 139.958 39.6503 139.076 39.9106 138.239C40.171 137.402 40.6047 136.63 41.1835 135.972C41.7624 135.314 42.4733 134.785 43.27 134.42C48.13 132.36 56.18 137.42 59.27 140.99C59.49 141.25 61.93 144.81 62.76 146.12C62.7556 146.063 62.7556 146.007 62.76 145.95C61.5369 141.274 60.7337 136.499 60.36 131.68C59.9924 127.38 59.8722 123.063 60 118.75C60.1 114.75 60.43 111.09 60.75 107.86C60.94 106.11 61.14 104.51 61.35 103.02L61.26 103.08C61.17 103.14 59.41 96.9799 59.34 96.5799C58.56 91.9299 59.8 82.4999 64.48 80.0699C65.2698 79.6893 66.1309 79.4791 67.0072 79.453C67.8836 79.4268 68.7557 79.5854 69.5667 79.9183C70.3778 80.2512 71.1098 80.7511 71.7151 81.3854C72.3203 82.0196 72.7854 82.7742 73.08 83.5999C74.44 87.0699 72.94 91.3999 71.08 94.4099C69.22 97.4199 63.08 101.79 61.58 102.84C61.4 104.39 61.22 106.05 61.06 107.84C60.81 111.07 60.56 114.72 60.55 118.71C60.55 119.78 60.55 120.92 60.6 122.03C60.96 120.15 61.49 117.59 61.6 117.34C63.05 112.86 68.49 105.06 73.77 105.07C74.6458 105.095 75.5065 105.305 76.2959 105.685C77.0853 106.065 77.7858 106.607 78.3518 107.276C78.9178 107.945 79.3366 108.726 79.581 109.567C79.8253 110.409 79.8897 111.292 79.77 112.16C79.39 115.87 76.06 119.02 73.05 120.85C70.04 122.68 62.29 123.81 60.63 124C60.71 126.46 60.84 129 61.14 131.6C61.6143 136.363 62.5112 141.075 63.82 145.68H64.12C64.24 143.91 64.58 140.2 64.64 139.89C65.64 135.28 70.14 126.89 75.39 126.36C76.2633 126.289 77.1417 126.404 77.9679 126.695C78.7941 126.986 79.5497 127.449 80.1855 128.051C80.8213 128.654 81.3231 129.384 81.6581 130.194C81.9931 131.003 82.1539 131.874 82.13 132.75C82.13 136.47 79.2 139.98 76.41 142.12C73.19 144.59 64.47 146.57 64.14 146.64C65.5645 151.181 67.2848 155.624 69.29 159.94C70.76 163.14 72.37 166.33 74.02 169.51C74.08 168.26 74.52 163.39 74.59 163.04C75.59 158.43 80.09 150.04 85.34 149.5C86.213 149.431 87.0906 149.546 87.9162 149.838C88.7417 150.13 89.4967 150.592 90.1321 151.195C90.7676 151.797 91.2694 152.527 91.6049 153.335C91.9405 154.144 92.1024 155.015 92.08 155.89C92.08 159.62 89.14 163.12 86.35 165.26C83.21 167.67 74.87 169.61 74.16 169.77C74.91 171.21 75.66 172.66 76.42 174.1C78.91 178.81 81.42 183.51 83.78 188.23C84.59 189.87 85.33 191.51 86.08 193.15C86.21 191.28 86.53 187.9 86.58 187.61C87.58 183 92.09 174.61 97.33 174.07C98.2033 173.999 99.0816 174.114 99.9079 174.405C100.734 174.696 101.49 175.159 102.126 175.761C102.761 176.364 103.263 177.094 103.598 177.904C103.933 178.713 104.094 179.584 104.07 180.46C104.07 184.19 101.14 187.69 98.35 189.83C95.56 191.97 88.56 193.76 86.59 194.24C87.82 197 89 199.7 90 202.46C90.41 203.66 90.9 204.85 91.23 206.02L92.29 209.51C92.92 211.92 93.52 214.15 94.06 216.41C94.34 217.55 94.57 218.63 94.83 219.73C94.68 217.83 94.5 214.8 94.51 214.52C94.76 209.82 97.99 200.87 103.09 199.52C103.943 199.318 104.829 199.298 105.69 199.461C106.551 199.624 107.368 199.967 108.088 200.467C108.808 200.967 109.414 201.613 109.868 202.363C110.321 203.113 110.612 203.95 110.72 204.82C110.79 205.276 110.821 205.738 110.81 206.2C112.863 209.796 113.962 213.859 114 218C114 218.3 113.51 221.85 113.22 223.66C113.79 222.26 114.35 220.87 114.91 219.41C115.74 217.3 116.54 215.05 117.34 212.87L118.46 209.4C118.86 208.23 119.1 207.07 119.46 205.88C119.92 204.14 120.3 202.31 120.68 200.5C118.49 199.78 112.08 197.58 109.54 195.31C107 193.04 104.23 189.25 104.54 185.54C104.583 184.665 104.809 183.809 105.204 183.027C105.599 182.246 106.154 181.556 106.833 181.002C107.512 180.449 108.3 180.044 109.145 179.814C109.99 179.585 110.874 179.536 111.74 179.67C116.93 180.67 120.85 189.3 121.45 193.97C121.45 194.12 121.5 195.12 121.52 196.31C121.84 194.53 122.17 192.74 122.43 190.92C123.19 185.76 123.79 180.47 124.43 175.18C124.56 174.07 124.71 172.97 124.84 171.87C122.99 171.28 116.03 168.96 113.37 166.58C110.71 164.2 108.06 160.52 108.37 156.81C108.41 155.934 108.634 155.076 109.028 154.293C109.422 153.51 109.977 152.818 110.657 152.264C111.337 151.71 112.125 151.306 112.972 151.078C113.819 150.849 114.704 150.803 115.57 150.94C120.76 151.94 124.67 160.57 125.28 165.24C125.28 165.4 125.28 166.6 125.35 167.94C125.73 165.06 126.15 162.21 126.66 159.38C127.49 154.514 128.649 149.709 130.13 145C129.47 144.8 121.26 142.24 118.3 139.6C115.67 137.25 112.98 133.54 113.3 129.83C113.34 128.954 113.564 128.096 113.958 127.313C114.352 126.53 114.907 125.838 115.587 125.284C116.267 124.73 117.055 124.326 117.902 124.098C118.749 123.869 119.634 123.823 120.5 123.96C125.68 124.96 129.6 133.59 130.21 138.26C130.21 138.59 130.32 142.91 130.29 144.46C130.29 144.4 130.29 144.34 130.34 144.29C131.902 139.715 133.867 135.288 136.21 131.06C138.291 127.264 140.588 123.592 143.09 120.06C145.38 116.77 147.67 113.91 149.73 111.39C150.85 110.03 151.9 108.81 152.89 107.68H152.78C152.68 107.68 154.61 101.56 154.78 101.19C156.7 96.8899 162.93 89.6999 168.17 90.2599C169.043 90.3789 169.88 90.6812 170.628 91.1471C171.375 91.613 172.016 92.2318 172.507 92.963C172.998 93.6941 173.329 94.5209 173.478 95.3891C173.627 96.2572 173.59 97.147 173.37 97.9999ZM112.88 224.6C111.98 224.17 105.07 220.75 102.37 217.82C100.033 219.093 97.6221 220.225 95.15 221.21C95.76 223.93 96.34 226.58 96.83 229.07C98.39 236.95 99.4 243.57 100.04 248.22C100.17 249.22 100.29 250.09 100.39 250.9H100.74L101.9 248.65C103.99 244.52 106.9 238.56 110.08 231.26C111 229.16 111.94 226.92 112.88 224.6ZM140.52 123.9C140.6 123.9 142.2 117.75 142.26 117.34C142.91 112.68 141.42 103.28 136.67 100.98C135.87 100.621 135.003 100.435 134.126 100.433C133.249 100.431 132.381 100.614 131.58 100.97C130.778 101.325 130.06 101.846 129.472 102.497C128.885 103.148 128.441 103.916 128.17 104.75C126.9 108.25 128.52 112.54 130.43 115.49C132.67 119 140.51 123.9 140.52 123.9Z" fill="white"/>
<path d="M423.61 159.26C423.61 159.26 413.83 166.74 412.48 172.5C411.13 178.26 412.87 184.39 414.02 188.04C415.17 191.69 415.36 209.34 404.62 217.2C393.88 225.06 389.08 232.93 390.23 242.72C391.38 252.51 405.96 263.25 418.05 265.72C430.14 268.19 447.21 262.65 453.92 248.26C460.63 233.87 451.62 218 446.63 209C441.64 200 442.03 191.54 447.63 191.16C453.23 190.78 456.07 192.16 456.27 184.25C456.47 176.34 454.54 164.11 444.37 157.97C434.2 151.83 423.61 159.26 423.61 159.26Z" fill="#2E353A" stroke="#2E353A" stroke-linecap="round" stroke-linejoin="round"/>
<path d="M399.53 255.76C400.53 256.43 409.53 260.1 416.19 249.76C422.85 239.42 413.78 229.89 415.53 220.76" stroke="white" stroke-width="0.5" stroke-miterlimit="10"/>
<path d="M434.55 171.16C434.55 171.16 431.43 161.08 438.19 164.35C445.44 167.85 451.19 184.35 448.69 188.1" stroke="white" stroke-width="0.5" stroke-miterlimit="10"/>
<path d="M432.69 169.85C432.69 169.85 428.94 162.6 431.44 159.35C433.94 156.1 439.69 159.85 442.69 162.1" stroke="white" stroke-width="0.5" stroke-miterlimit="10"/>
<path d="M441.19 189.6C441.19 189.6 442.19 194.1 439.19 203.1C436.19 212.1 430.69 222.35 436.19 231.85C441.69 241.35 445.94 247.85 439.69 257.35" stroke="white" stroke-width="0.5" stroke-miterlimit="10"/>
<path d="M441.19 194.85C441.407 200.711 440.988 206.579 439.94 212.35C438.19 222.35 443.69 228.85 449.44 235.1C455.19 241.35 453.69 246.6 451.69 252.35" stroke="white" stroke-width="0.5" stroke-miterlimit="10"/>
<path d="M432.44 171.35C432.44 171.35 420.69 172.35 417.19 170.85C413.69 169.35 414.44 168.1 414.44 168.1" stroke="white" stroke-width="0.5" stroke-miterlimit="10"/>
<path d="M434 211.29C434 211.29 435.53 226.83 437.49 235.82C439.45 244.81 442.57 256.16 441.79 259.29C441.01 262.42 423.79 289.01 423.79 289.01L418.71 285.49L429.27 253.81L420.38 224.11C420.38 224.11 428.52 212.18 434 211.29Z" fill="white" stroke="#2E353A" stroke-linecap="round" stroke-linejoin="round"/>
<path d="M432.63 208.76C430.13 205.88 424.76 198.4 424.76 198.4L416.32 188.4L404.62 172.29C403.08 170.18 397.9 170.94 382.94 171.14C367.98 171.34 322.57 162.7 322.57 162.7L321.04 172.7C321.04 172.7 362.6 181.7 373.15 182.7C383.7 183.7 393.49 185 393.49 185C392.049 187.871 390.767 190.818 389.65 193.83C388.5 197.28 375.07 215.7 375.07 215.7C375.07 215.7 374.74 215.9 374.17 216.28C374.02 219.62 374.34 226.71 379.33 230.45C383.19 233.34 388.84 234.56 392.92 235.07C392.99 234.84 393.05 234.64 393.1 234.5C393.68 232.96 397.9 230.66 400.2 230.5C402.5 230.34 409.6 230.69 413.83 230.31C418.06 229.93 420.35 224.17 420.35 224.17C420.35 224.17 429.67 215.07 433.96 211.35C433.694 210.406 433.242 209.526 432.63 208.76Z" fill="white" stroke="#2E353A" stroke-linecap="round" stroke-linejoin="round"/>
<path d="M398.8 187.32L393.49 184.97L397.35 191.11" stroke="#2E353A" stroke-width="0.75" stroke-linecap="round" stroke-linejoin="round"/>
<path d="M385.41 222.26C389.407 224.739 394.135 225.767 398.8 225.17" stroke="#2E353A" stroke-width="0.75" stroke-linecap="round" stroke-linejoin="round"/>
<path d="M381 215.27C381 215.27 381.87 218.77 387.41 221.1" stroke="#2E353A" stroke-width="0.75" stroke-linecap="round" stroke-linejoin="round"/>
<path d="M429.24 253.81C429.24 253.81 432.87 252.25 435.78 256.33" stroke="#2E353A" stroke-width="0.75" stroke-linecap="round" stroke-linejoin="round"/>
<path d="M430.25 226.63L420.35 224.11L429.08 231" stroke="#2E353A" stroke-width="0.75" stroke-linecap="round" stroke-linejoin="round"/>
<path d="M403.17 176C403.17 176 398.22 184.73 392.4 184.44C384.49 184.04 362.11 177.44 362.11 175.12C362.11 172.8 368.23 171.92 368.23 171.92" stroke="#2E353A" stroke-width="0.75" stroke-linecap="round" stroke-linejoin="round"/>
<path d="M420.35 183.24C420.35 183.24 416.35 182.24 413.44 184.01C410.53 185.78 402.89 202.43 402.89 202.43C402.89 202.43 403.46 203.2 405.77 203.2C408.08 203.2 408.65 206.27 408.65 209.14C408.65 212.01 408.45 213.36 409.41 213.14C410.37 212.92 416.13 210.84 417.28 211.61C418.43 212.38 415.74 216.21 416.28 216.61C416.82 217.01 421.65 212.19 423.19 207.01C424.73 201.83 426.26 194.16 425.87 191.09C425.48 188.02 423 184 420.35 183.24Z" fill="#92E3A9" stroke="#2E353A" stroke-linecap="round" stroke-linejoin="round"/>
<path d="M423.61 199.17C421.497 201.527 419.257 203.767 416.9 205.88C412.48 209.88 408.84 212.79 409.03 210.88C409.22 208.97 413.63 198.6 414.78 192.88C415.93 187.16 418.05 183.28 420.35 183.28C422.65 183.28 427.64 195 423.61 199.17Z" fill="white" stroke="#2E353A" stroke-linecap="round" stroke-linejoin="round"/>
<path d="M421.31 174.42C421.463 174.887 421.714 175.316 422.045 175.68C422.375 176.044 422.779 176.333 423.23 176.53C424.57 176.91 434.55 171.16 434.55 171.16C434.55 171.16 441.65 186.31 440.49 188.61C439.33 190.91 435.89 193.8 432.05 196.48C428.21 199.16 421.12 201.28 418.43 199.74C415.74 198.2 417.66 182.48 417.66 182.48C417.66 182.48 415.55 179.98 417.85 175.95C420.15 171.92 421.31 174.42 421.31 174.42Z" fill="white" stroke="#2E353A" stroke-linecap="round" stroke-linejoin="round"/>
<path d="M437.38 190.07C437.38 190.07 437.55 188.88 435.33 188.88C433.11 188.88 429.21 192.96 429.21 192.96" stroke="#2E353A" stroke-width="0.75" stroke-linecap="round" stroke-linejoin="round"/>
<path d="M427.68 193.3L426.49 192.11" stroke="#2E353A" stroke-width="0.75" stroke-linecap="round" stroke-linejoin="round"/>
<path d="M426 195.52C426 195.52 422.94 195.01 422.43 191.09" stroke="#2E353A" stroke-width="0.75" stroke-linecap="round" stroke-linejoin="round"/>
<path d="M433.08 183.89C433.08 183.89 432.32 180.16 429.08 179.44" stroke="#2E353A" stroke-width="0.75" stroke-linecap="round" stroke-linejoin="round"/>
<path d="M429.23 185.89C428.45 186.5 427.59 186.7 427.3 186.33C427.01 185.96 427.4 185.17 428.17 184.56C428.94 183.95 429.81 183.75 430.1 184.12C430.39 184.49 430 185.28 429.23 185.89Z" fill="#2E353A"/>
<path d="M434.05 192.19C433.41 192.69 432.7 192.86 432.46 192.55C432.22 192.24 432.54 191.55 433.18 191.08C433.82 190.61 434.53 190.42 434.77 190.72C435.01 191.02 434.69 191.68 434.05 192.19Z" fill="#2E353A"/>
<path d="M415.38 355.47L425.19 369.1C425.19 369.1 425.19 371.6 421.69 371.6C418.19 371.6 416.19 371.6 414.19 369.1C412.19 366.6 412.19 365.1 410.19 364.1C408.19 363.1 406.19 363.1 407.19 357.6C408.19 352.1 415.38 355.47 415.38 355.47Z" fill="white" stroke="#2E353A" stroke-linecap="round" stroke-linejoin="round"/>
<path d="M425.15 369.41C423.596 370.156 421.853 370.414 420.15 370.15C416.61 369.51 414.46 365.97 413.15 364.45C411.84 362.93 410.24 362.94 408.73 361.67C408.012 361.056 407.385 360.342 406.87 359.55C406.66 363.11 408.39 363.23 410.11 364.1C412.11 365.1 412.11 366.6 414.11 369.1C416.11 371.6 418.11 371.6 421.61 371.6C424.42 371.6 425 370.08 425.15 369.41Z" fill="white" stroke="#2E353A" stroke-linecap="round" stroke-linejoin="round"/>
<path d="M414.82 353.74C412.82 347.74 409.97 311.82 408.49 300.45C405.49 277.33 392.15 247.32 392.15 247.32L392.92 235.04C388.84 234.53 383.19 233.31 379.33 230.42C374.33 226.68 374.02 219.59 374.17 216.25C371.64 217.88 364.17 222.79 357.8 227.95C349.94 234.28 344.56 256.73 343.03 263.82C341.5 270.91 339.77 291.82 339.77 291.82C339.77 291.82 325.95 297.19 320.39 304.82C314.83 312.45 297.94 329.76 297.94 329.76L299.48 335.52C299.48 335.52 304.66 331.88 309.07 328.42C313.48 324.96 347.83 305.78 350.13 304.42C352.43 303.06 355.13 300.42 358.19 292.72C359.31 289.91 360.89 285.31 362.45 280.6L367.78 264L372.91 259.63C377.97 273.31 389.73 299.68 391.4 303.45C393.4 307.97 394.92 328.07 400.45 340.64C405.98 353.21 407.45 359.24 407.45 359.24C407.45 359.24 416.83 359.77 414.82 353.74Z" fill="#2E353A" stroke="#2E353A" stroke-linecap="round" stroke-linejoin="round"/>
<path d="M392.59 237.41L394.5 248.56" stroke="white" stroke-width="0.5" stroke-miterlimit="10"/>
<path d="M122.18 151.29L93.3 396.59C93.2609 396.943 93.3216 397.3 93.4753 397.621C93.629 397.941 93.8695 398.212 94.1695 398.403C94.4694 398.593 94.8169 398.696 95.1723 398.699C95.5277 398.702 95.8768 398.605 96.18 398.42L114.74 387C115.842 386.317 117.165 386.089 118.432 386.363C119.699 386.637 120.809 387.393 121.53 388.47L144.85 423.14L154.58 277.3L122.18 151.29Z" fill="#92E3A9" stroke="#2E353A" stroke-linecap="round" stroke-linejoin="round"/>
<path d="M122 157.46L95.9 390.46C95.8436 390.963 95.9352 391.471 96.1636 391.923C96.3919 392.375 96.7471 392.75 97.1856 393.002C97.6241 393.255 98.1268 393.374 98.632 393.345C99.1373 393.317 99.6231 393.141 100.03 392.84L113.6 382.84C114.306 382.318 115.111 381.946 115.965 381.745C116.82 381.545 117.706 381.522 118.57 381.676C119.435 381.831 120.258 382.16 120.99 382.644C121.723 383.128 122.349 383.756 122.83 384.49L138.71 408.73C138.882 408.999 139.139 409.203 139.441 409.309C139.742 409.415 140.071 409.417 140.373 409.315C140.676 409.212 140.936 409.011 141.111 408.744C141.286 408.477 141.367 408.158 141.34 407.84L122.8 157.47C122.781 157.379 122.731 157.297 122.659 157.238C122.587 157.179 122.497 157.146 122.404 157.145C122.311 157.144 122.22 157.174 122.147 157.231C122.073 157.289 122.022 157.369 122 157.46Z" fill="#92E3A9" stroke="#2E353A" stroke-linecap="round" stroke-linejoin="round"/>
<path opacity="0.6" d="M122.36 154.08L95.88 390.44C95.8236 390.943 95.9152 391.451 96.1436 391.903C96.372 392.355 96.7272 392.73 97.1657 392.982C97.6041 393.235 98.1068 393.354 98.6121 393.326C99.1173 393.297 99.6032 393.121 100.01 392.82L113.58 382.82C114.286 382.298 115.091 381.926 115.945 381.726C116.8 381.525 117.686 381.502 118.551 381.656C119.415 381.811 120.238 382.14 120.97 382.624C121.703 383.108 122.329 383.736 122.81 384.47L138.69 408.71C138.862 408.979 139.119 409.183 139.421 409.289C139.722 409.395 140.051 409.397 140.353 409.295C140.656 409.192 140.916 408.991 141.091 408.724C141.266 408.457 141.347 408.138 141.32 407.82L122.55 154.08C122.543 154.06 122.531 154.043 122.514 154.03C122.497 154.018 122.476 154.011 122.455 154.011C122.434 154.011 122.413 154.018 122.396 154.03C122.379 154.043 122.367 154.06 122.36 154.08Z" fill="black"/>
<path d="M117.53 381.54C118.581 381.558 119.611 381.833 120.531 382.34C121.451 382.847 122.233 383.572 122.81 384.45L138.69 408.69C138.862 408.959 139.119 409.163 139.421 409.269C139.722 409.375 140.051 409.377 140.353 409.275C140.656 409.172 140.916 408.971 141.091 408.704C141.266 408.437 141.347 408.118 141.32 407.8L139.05 377.16L117.19 381.44C117.306 381.463 117.42 381.496 117.53 381.54Z" fill="#92E3A9" stroke="#2E353A" stroke-linecap="round" stroke-linejoin="round"/>
<path opacity="0.3" d="M117.53 381.54C118.581 381.558 119.611 381.833 120.531 382.34C121.451 382.847 122.233 383.572 122.81 384.45L138.69 408.69C138.862 408.959 139.119 409.163 139.421 409.269C139.722 409.375 140.051 409.377 140.353 409.275C140.656 409.172 140.916 408.971 141.091 408.704C141.266 408.437 141.347 408.118 141.32 407.8L139.05 377.16L117.19 381.44C117.306 381.463 117.42 381.496 117.53 381.54Z" fill="black"/>
<path d="M122.77 151.14L144.84 423.14L402.19 374.1L341.71 161.97L122.77 151.14Z" fill="#2E353A" stroke="#2E353A" stroke-linecap="round" stroke-linejoin="round"/>
<path d="M134.7 157.01L149.86 408.76L391.86 364.76L340.85 169.17L134.7 157.01Z" fill="#92E3A9" stroke="#2E353A" stroke-linecap="round" stroke-linejoin="round"/>
<path d="M149.49 280.9L161 400.23L380.88 360.25L360.45 270.56L149.49 280.9Z" fill="white" stroke="#2E353A" stroke-linecap="round" stroke-linejoin="round"/>
<path d="M191.93 394.29L188.28 355.96" stroke="#2E353A" stroke-linecap="round" stroke-linejoin="round"/>
<path d="M225.58 388.36L222.06 356.41" stroke="#2E353A" stroke-linecap="round" stroke-linejoin="round"/>
<path d="M258.57 381.97L254.46 356.41" stroke="#2E353A" stroke-linecap="round" stroke-linejoin="round"/>
<path d="M292.56 376.14L287.67 345.67" stroke="#2E353A" stroke-linecap="round" stroke-linejoin="round"/>
<path d="M322.5 370.74L318.33 341" stroke="#2E353A" stroke-linecap="round" stroke-linejoin="round"/>
<path d="M351.21 365.43L345 329.67" stroke="#2E353A" stroke-linecap="round" stroke-linejoin="round"/>
<path d="M418.68 285.49C418.68 285.49 415.62 288.57 415.42 290.17C415.22 291.77 416.82 296.59 416.82 296.59L421.64 297.39L423.76 289.01L418.68 285.49Z" fill="white" stroke="#2E353A" stroke-linecap="round" stroke-linejoin="round"/>
<g style="mix-blend-mode:multiply" opacity="0.49">
<path d="M135.92 226.56C135.92 226.56 141 299.67 145.67 326.33C150.34 352.99 159 392.89 159 392.89C159 392.89 309 369.67 383 338.33L377 309.67L135.92 226.56Z" fill="#92E3A9"/>
</g>
<path d="M129.14 154.27L339.81 165.62C339.81 165.62 360.32 227.07 380.73 261.77C401.14 296.47 434.8 294.21 434.8 294.21C434.8 294.21 357.6 336.42 297.47 358.89C234.89 382.26 180.62 386.46 180.62 386.46C180.62 386.46 131.19 318.94 129.14 154.27Z" fill="#92E3A9" stroke="#2E353A" stroke-linecap="round" stroke-linejoin="round"/>
<path d="M153.26 143.33C149.35 143.33 146.52 146.8 145.63 152.24L149.63 152.46C150.25 149.32 151.48 147.33 153.25 147.33C155.31 147.33 157.6 150.64 157.6 155.4C157.6 160.16 155.31 163.48 153.25 163.48C152.72 163.48 152.211 163.691 151.836 164.066C151.461 164.441 151.25 164.95 151.25 165.48C151.25 166.01 151.461 166.519 151.836 166.894C152.211 167.269 152.72 167.48 153.25 167.48C157.93 167.48 161.6 162.17 161.6 155.4C161.6 148.63 157.94 143.33 153.26 143.33Z" fill="white" stroke="#2E353A" stroke-miterlimit="10"/>
<path d="M159 158.64C158.808 159.345 158.561 160.034 158.26 160.7" stroke="#2E353A" stroke-width="0.75" stroke-linecap="round" stroke-linejoin="round"/>
<path d="M147.61 150.44C147.61 150.44 149.11 145.02 153.54 145.32C157.02 145.56 159.89 150.73 159.41 156.26" stroke="#2E353A" stroke-width="0.75" stroke-linecap="round" stroke-linejoin="round"/>
<path d="M188 145.08C184.09 145.08 181.26 148.55 180.37 153.99L184.37 154.21C184.99 151.07 186.22 149.08 187.99 149.08C190.05 149.08 192.34 152.39 192.34 157.15C192.34 161.91 190.05 165.23 187.99 165.23C187.46 165.23 186.951 165.441 186.576 165.816C186.201 166.191 185.99 166.7 185.99 167.23C185.99 167.76 186.201 168.269 186.576 168.644C186.951 169.019 187.46 169.23 187.99 169.23C192.67 169.23 196.34 163.92 196.34 157.15C196.34 150.38 192.69 145.08 188 145.08Z" fill="white" stroke="#2E353A" stroke-miterlimit="10"/>
<path d="M193.75 160.39C193.558 161.095 193.311 161.784 193.01 162.45" stroke="#2E353A" stroke-width="0.75" stroke-linecap="round" stroke-linejoin="round"/>
<path d="M182.36 152.19C182.36 152.19 183.86 146.77 188.29 147.07C191.77 147.31 194.64 152.48 194.16 158.01" stroke="#2E353A" stroke-width="0.75" stroke-linecap="round" stroke-linejoin="round"/>
<path d="M222.76 146.83C218.85 146.83 216.02 150.3 215.13 155.74L219.13 155.96C219.75 152.82 220.98 150.83 222.75 150.83C224.81 150.83 227.1 154.14 227.1 158.9C227.1 163.66 224.81 166.98 222.75 166.98C222.22 166.98 221.711 167.191 221.336 167.566C220.961 167.941 220.75 168.45 220.75 168.98C220.75 169.51 220.961 170.019 221.336 170.394C221.711 170.769 222.22 170.98 222.75 170.98C227.43 170.98 231.1 165.67 231.1 158.9C231.1 152.13 227.44 146.83 222.76 146.83Z" fill="white" stroke="#2E353A" stroke-miterlimit="10"/>
<path d="M228.5 162.14C228.308 162.845 228.061 163.534 227.76 164.2" stroke="#2E353A" stroke-width="0.75" stroke-linecap="round" stroke-linejoin="round"/>
<path d="M217.11 153.94C217.11 153.94 218.61 148.52 223.04 148.82C226.52 149.06 229.39 154.23 228.91 159.76" stroke="#2E353A" stroke-width="0.75" stroke-linecap="round" stroke-linejoin="round"/>
<path d="M257.51 148.58C253.6 148.58 250.77 152.05 249.88 157.49L253.88 157.71C254.5 154.57 255.73 152.58 257.5 152.58C259.56 152.58 261.85 155.89 261.85 160.65C261.85 165.41 259.56 168.73 257.5 168.73C256.97 168.73 256.461 168.941 256.086 169.316C255.711 169.691 255.5 170.2 255.5 170.73C255.5 171.26 255.711 171.769 256.086 172.144C256.461 172.519 256.97 172.73 257.5 172.73C262.18 172.73 265.85 167.42 265.85 160.65C265.85 153.88 262.19 148.58 257.51 148.58Z" fill="white" stroke="#2E353A" stroke-miterlimit="10"/>
<path d="M263.25 163.89C263.058 164.595 262.811 165.284 262.51 165.95" stroke="#2E353A" stroke-width="0.75" stroke-linecap="round" stroke-linejoin="round"/>
<path d="M251.86 155.69C251.86 155.69 253.36 150.27 257.79 150.57C261.27 150.81 264.14 155.98 263.66 161.51" stroke="#2E353A" stroke-width="0.75" stroke-linecap="round" stroke-linejoin="round"/>
<path d="M292.89 150.13C288.98 150.13 286.15 153.6 285.27 159.05L289.27 159.27C289.9 156.13 291.13 154.13 292.89 154.13C294.95 154.13 297.25 157.45 297.25 162.21C297.25 166.97 294.95 170.28 292.89 170.28C292.36 170.28 291.851 170.491 291.476 170.866C291.101 171.241 290.89 171.75 290.89 172.28C290.89 172.81 291.101 173.319 291.476 173.694C291.851 174.069 292.36 174.28 292.89 174.28C297.58 174.28 301.25 168.98 301.25 162.21C301.25 155.44 297.58 150.13 292.89 150.13Z" fill="white" stroke="#2E353A" stroke-miterlimit="10"/>
<path d="M298.63 165.45C298.44 166.152 298.193 166.838 297.89 167.5" stroke="#2E353A" stroke-width="0.75" stroke-linecap="round" stroke-linejoin="round"/>
<path d="M287.24 157.25C287.24 157.25 288.75 151.82 293.17 152.12C296.66 152.36 299.52 157.54 299.05 163.07" stroke="#2E353A" stroke-width="0.75" stroke-linecap="round" stroke-linejoin="round"/>
<path d="M326.88 152C322.97 152 320.14 155.47 319.26 160.91L323.26 161.14C323.89 158 325.12 156 326.88 156C328.94 156 331.24 159.32 331.24 164.07C331.24 168.82 328.94 172.15 326.88 172.15C326.35 172.15 325.841 172.361 325.466 172.736C325.091 173.111 324.88 173.62 324.88 174.15C324.88 174.68 325.091 175.189 325.466 175.564C325.841 175.939 326.35 176.15 326.88 176.15C331.57 176.15 335.24 170.84 335.24 164.07C335.24 157.3 331.57 152 326.88 152Z" fill="white" stroke="#2E353A" stroke-miterlimit="10"/>
<path d="M332.62 167.26C332.432 167.966 332.184 168.655 331.88 169.32" stroke="#2E353A" stroke-width="0.75" stroke-linecap="round" stroke-linejoin="round"/>
<path d="M321.23 159.07C321.23 159.07 322.74 153.64 327.16 153.94C330.65 154.18 333.51 159.35 333.04 164.88" stroke="#2E353A" stroke-width="0.75" stroke-linecap="round" stroke-linejoin="round"/>
<path d="M423.76 289C423.76 289 425.76 291.74 425.76 292.91C425.76 294.08 423.02 296.04 423.02 298.77C423.02 301.5 419.5 300.77 419.11 298.77C418.72 296.77 419.89 294.08 419.89 294.08C419.89 294.08 418.26 293.08 417.89 289.56C417.52 286.04 420.69 287.04 420.69 287.04L423.76 289Z" fill="white" stroke="#2E353A" stroke-linecap="round" stroke-linejoin="round"/>
<path d="M373.76 261.93C359.27 237.29 344.05 198.38 338.64 184.06L150.37 176.43C150.25 315.58 192.37 373.07 192.37 373.07C192.37 373.07 240.32 369.36 295.62 348.7C348.76 328.85 412.14 295.53 412.14 295.53C412.14 295.53 391.79 292.6 373.76 261.93Z" fill="white" stroke="#2E353A" stroke-linecap="round" stroke-linejoin="round"/>
<path d="M338.64 184.06L150.37 176.43C150.37 190.12 150.76 203 151.48 215.13L350.3 213.27C345.15 201 341 190.25 338.64 184.06Z" fill="#2E353A" stroke="#2E353A" stroke-linecap="round" stroke-linejoin="round"/>
<path d="M341.97 225.54L350.87 225.23" stroke="#2E353A" stroke-width="3" stroke-linecap="round" stroke-linejoin="round"/>
<path d="M315.81 226.43L335.3 225.76" stroke="#2E353A" stroke-width="3" stroke-linecap="round" stroke-linejoin="round"/>
<path d="M284.14 227.5L309.19 226.65" stroke="#2E353A" stroke-width="3" stroke-linecap="round" stroke-linejoin="round"/>
<path d="M251.92 228.59L278.61 227.69" stroke="#2E353A" stroke-width="3" stroke-linecap="round" stroke-linejoin="round"/>
<path d="M220.77 229.65L245.24 228.82" stroke="#2E353A" stroke-width="3" stroke-linecap="round" stroke-linejoin="round"/>
<path d="M187.95 230.77L212.44 229.93" stroke="#2E353A" stroke-width="3" stroke-linecap="round" stroke-linejoin="round"/>
<path d="M159.06 231.75L181.85 230.97" stroke="#2E353A" stroke-width="3" stroke-linecap="round" stroke-linejoin="round"/>
<path d="M155.35 253.2L362.48 240.58" stroke="#2E353A" stroke-linecap="round" stroke-linejoin="round"/>
<path d="M188.08 251.42C188.08 251.42 191.48 306.5 227.79 367.64" stroke="#2E353A" stroke-linecap="round" stroke-linejoin="round"/>
<path d="M221.5 249.21C221.5 249.21 225.33 312.21 265.14 358.34" stroke="#2E353A" stroke-linecap="round" stroke-linejoin="round"/>
<path d="M251.76 247.35C251.76 247.35 253.76 305.35 298.51 347.03" stroke="#2E353A" stroke-linecap="round" stroke-linejoin="round"/>
<path d="M283.13 246C283.13 246 288.07 310.48 331.38 333.19" stroke="#2E353A" stroke-linecap="round" stroke-linejoin="round"/>
<path d="M316 243.41C316 243.41 319.48 292.18 363.78 318.89" stroke="#2E353A" stroke-linecap="round" stroke-linejoin="round"/>
<path d="M341.88 241.83C341.88 241.83 353.8 291.83 387.15 308.02" stroke="#2E353A" stroke-linecap="round" stroke-linejoin="round"/>
<path d="M159.89 281.61L371.45 258.34" stroke="#2E353A" stroke-linecap="round" stroke-linejoin="round"/>
<path d="M165.41 306.5C165.41 306.5 210.58 304.73 381.29 273.27" stroke="#2E353A" stroke-linecap="round" stroke-linejoin="round"/>
<path d="M173.38 332.85C173.38 332.85 217.38 337.85 389.76 282.96" stroke="#2E353A" stroke-linecap="round" stroke-linejoin="round"/>
<path d="M182.9 355.84C182.9 355.84 219.58 367.99 399.76 290.84" stroke="#2E353A" stroke-linecap="round" stroke-linejoin="round"/>
<path d="M231.69 203.65L163.87 202.74C163.321 202.732 162.793 202.524 162.385 202.157C161.976 201.789 161.715 201.286 161.65 200.74L161.07 195.26C161.036 194.945 161.069 194.626 161.168 194.324C161.266 194.023 161.428 193.745 161.641 193.511C161.855 193.276 162.116 193.09 162.407 192.964C162.698 192.838 163.013 192.775 163.33 192.78L230.33 193.94C230.825 193.949 231.304 194.12 231.692 194.427C232.081 194.734 232.357 195.16 232.48 195.64L233.84 200.85C233.925 201.179 233.934 201.524 233.866 201.857C233.798 202.191 233.655 202.504 233.448 202.774C233.241 203.044 232.975 203.263 232.67 203.415C232.365 203.567 232.03 203.647 231.69 203.65Z" fill="white"/>
</svg>
